<?xml version="1.0" encoding="utf-8"?>
<!-- Generator: Adobe Illustrator 16.0.0, SVG Export Plug-In . SVG Version: 6.00 Build 0)  -->
<!DOCTYPE svg PUBLIC "-//W3C//DTD SVG 1.1//EN" "http://www.w3.org/Graphics/SVG/1.1/DTD/svg11.dtd">
<svg version="1.1" id="Layer_1" xmlns="http://www.w3.org/2000/svg" xmlns:xlink="http://www.w3.org/1999/xlink" x="0px" y="0px"
	 width="36px" height="36px" viewBox="0 0 36 36" enable-background="new 0 0 36 36" xml:space="preserve">
<g>
	<rect opacity="0.76" fill="#02304D" width="36" height="35.667"/>
	<g opacity="0.5">
		
			<linearGradient id="SVGID_1_" gradientUnits="userSpaceOnUse" x1="14175.6895" y1="8274.9883" x2="14194.4678" y2="8274.9883" gradientTransform="matrix(1 0 0 1 -14179.7109 -8246.4023)">
			<stop  offset="0.0386" style="stop-color:#F6E9D5"/>
			<stop  offset="0.1124" style="stop-color:#F4E1C1"/>
			<stop  offset="0.2173" style="stop-color:#F1D8A9"/>
			<stop  offset="0.3079" style="stop-color:#F0D39B"/>
			<stop  offset="0.3732" style="stop-color:#EFD296"/>
			<stop  offset="1" style="stop-color:#8B6F2B"/>
		</linearGradient>
		<polygon fill="url(#SVGID_1_)" points="14.373,21.383 14.373,21.341 0,35.411 0,35.832 14.758,21.383 		"/>
		
			<linearGradient id="SVGID_2_" gradientUnits="userSpaceOnUse" x1="14201.3516" y1="8253.8076" x2="14219.7178" y2="8253.8076" gradientTransform="matrix(1 0 0 1 -14179.7109 -8246.4023)">
			<stop  offset="0.0386" style="stop-color:#F6E9D5"/>
			<stop  offset="0.1124" style="stop-color:#F4E1C1"/>
			<stop  offset="0.2173" style="stop-color:#F1D8A9"/>
			<stop  offset="0.3079" style="stop-color:#F0D39B"/>
			<stop  offset="0.3732" style="stop-color:#EFD296"/>
			<stop  offset="1" style="stop-color:#8B6F2B"/>
		</linearGradient>
		<polygon fill="url(#SVGID_2_)" points="21.641,14.644 36,0.585 36,0.166 21.641,14.224 		"/>
		
			<linearGradient id="SVGID_3_" gradientUnits="userSpaceOnUse" x1="-10747.6982" y1="8274.9883" x2="-10728.9209" y2="8274.9883" gradientTransform="matrix(-1 0 0 1 -10707.6787 -8246.4023)">
			<stop  offset="0.0386" style="stop-color:#F6E9D5"/>
			<stop  offset="0.1124" style="stop-color:#F4E1C1"/>
			<stop  offset="0.2173" style="stop-color:#F1D8A9"/>
			<stop  offset="0.3079" style="stop-color:#F0D39B"/>
			<stop  offset="0.3732" style="stop-color:#EFD296"/>
			<stop  offset="1" style="stop-color:#8B6F2B"/>
		</linearGradient>
		<polygon fill="url(#SVGID_3_)" points="21.627,21.383 21.242,21.383 36,35.832 36,35.411 21.627,21.341 		"/>
		
			<linearGradient id="SVGID_4_" gradientUnits="userSpaceOnUse" x1="-10722.0381" y1="8253.8076" x2="-10703.6729" y2="8253.8076" gradientTransform="matrix(-1 0 0 1 -10707.6787 -8246.4023)">
			<stop  offset="0.0386" style="stop-color:#F6E9D5"/>
			<stop  offset="0.1124" style="stop-color:#F4E1C1"/>
			<stop  offset="0.2173" style="stop-color:#F1D8A9"/>
			<stop  offset="0.3079" style="stop-color:#F0D39B"/>
			<stop  offset="0.3732" style="stop-color:#EFD296"/>
			<stop  offset="1" style="stop-color:#8B6F2B"/>
		</linearGradient>
		<polygon fill="url(#SVGID_4_)" points="14.359,14.224 0,0.166 0,0.585 14.359,14.644 		"/>
		
			<linearGradient id="SVGID_5_" gradientUnits="userSpaceOnUse" x1="14193.8887" y1="8263.3047" x2="14201.5312" y2="8263.3047" gradientTransform="matrix(1 0 0 1 -14179.7109 -8246.4023)">
			<stop  offset="0.0386" style="stop-color:#F6E9D5"/>
			<stop  offset="0.1124" style="stop-color:#F4E1C1"/>
			<stop  offset="0.2173" style="stop-color:#F1D8A9"/>
			<stop  offset="0.3079" style="stop-color:#F0D39B"/>
			<stop  offset="0.3732" style="stop-color:#EFD296"/>
			<stop  offset="1" style="stop-color:#8B6F2B"/>
		</linearGradient>
		<path fill="url(#SVGID_5_)" d="M19.297,16.731c-0.521-0.007-1.225-2.986-1.299-3.31c-0.074,0.324-0.778,3.302-1.299,3.31
			c-1.326-1.192-2.521-0.231-2.521-0.231s2.087,0.179,2.137,2.861c0.023,0.327,0.048,0.654,0.006,1.021h0.815
			c-0.017-2.184-0.37-2.58-0.37-2.58l1.232,1.067l1.233-1.067c0,0-0.353,0.396-0.371,2.58h0.815
			c-0.042-0.367-0.015-0.694,0.006-1.021C19.73,16.679,21.82,16.5,21.82,16.5S20.625,15.539,19.297,16.731z"/>
	</g>
</g>
</svg>
