<?xml version="1.0" encoding="utf-8"?>
<!-- Generator: Adobe Illustrator 16.0.0, SVG Export Plug-In . SVG Version: 6.00 Build 0)  -->
<!DOCTYPE svg PUBLIC "-//W3C//DTD SVG 1.1//EN" "http://www.w3.org/Graphics/SVG/1.1/DTD/svg11.dtd">
<svg version="1.1" id="Layer_1" xmlns="http://www.w3.org/2000/svg" xmlns:xlink="http://www.w3.org/1999/xlink" x="0px" y="0px"
	 width="859px" height="325px" viewBox="0 0 859 325" enable-background="new 0 0 859 325" xml:space="preserve">
<g>
	<g opacity="0.85">
		<path fill="#F9F9FA" d="M491,326H85v-0.06c-47-1.662-84-37.819-84-82.026v-0.218c0-21.746,9.073-42.106,25.549-57.33
			c16.414-15.166,38.286-23.519,61.588-23.519L88.14,163h686.442C821.13,163,859,126.311,859,81.213v-0.218
			c0-21.512-8.654-41.46-24.37-56.171C818.906,10.106,797.581,2,774.582,2H85V1h689.582c23.254,0,44.822,8.202,60.731,23.094
			C851.232,38.996,860,59.204,860,80.995v0.218C860,126.862,821.682,164,774.582,164H84.924l-0.002-0.099
			c-21.841,0.731-42.223,8.903-57.694,23.199C10.959,202.133,2,222.232,2,243.696v0.218C2,288.625,40.702,325,88.272,325H491V326z"
			/>
	</g>
	<g>
		<g>
			<path fill="#303030" d="M490,325H84v-0.06c-47-1.662-84-37.819-84-82.026v-0.218c0-21.746,9.073-42.106,25.549-57.33
				c16.414-15.166,38.286-23.519,61.588-23.519L87.14,162h686.442C820.13,162,858,125.311,858,80.213v-0.218
				c0-21.512-8.654-41.46-24.37-56.171C817.906,9.106,796.581,1,773.582,1H84V0h689.582c23.254,0,44.822,8.202,60.731,23.094
				C850.232,37.996,859,58.204,859,79.995v0.218C859,125.862,820.682,163,773.582,163H83.924l-0.002-0.099
				c-21.841,0.731-42.223,8.903-57.694,23.199C9.959,201.133,1,221.232,1,242.696v0.218C1,287.625,39.702,324,87.272,324H490V325z"
				/>
		</g>
	</g>
</g>
</svg>
