<?xml version="1.0" encoding="utf-8"?>
<!-- Generator: Adobe Illustrator 16.0.0, SVG Export Plug-In . SVG Version: 6.00 Build 0)  -->
<!DOCTYPE svg PUBLIC "-//W3C//DTD SVG 1.1//EN" "http://www.w3.org/Graphics/SVG/1.1/DTD/svg11.dtd">
<svg version="1.1" id="Layer_1" xmlns="http://www.w3.org/2000/svg" xmlns:xlink="http://www.w3.org/1999/xlink" x="0px" y="0px"
	 width="269.829px" height="151.127px" viewBox="0 0 269.829 151.127" enable-background="new 0 0 269.829 151.127"
	 xml:space="preserve">
<g>
	<g>
		<radialGradient id="SVGID_1_" cx="49.4688" cy="44.1211" r="46.8713" gradientUnits="userSpaceOnUse">
			<stop  offset="0.0386" style="stop-color:#F6E9D5"/>
			<stop  offset="0.1124" style="stop-color:#F4E1C1"/>
			<stop  offset="0.2173" style="stop-color:#F1D8A9"/>
			<stop  offset="0.3079" style="stop-color:#F0D39B"/>
			<stop  offset="0.3732" style="stop-color:#EFD296"/>
			<stop  offset="1" style="stop-color:#8B6F2B"/>
		</radialGradient>
		<path fill="url(#SVGID_1_)" d="M98.938,9.841c-0.524,1.181-1.855,2.732-4.002,4.66c-1.659,1.353-3.322,2.732-4.983,4.13
			c-3.765,3.238-8.728,7.875-14.894,13.91c-3.981,3.805-7.965,7.635-11.94,11.483c-5.862,5.903-10.431,11.001-13.712,15.285
			c-4.378,5.773-6.56,10.301-6.56,13.581c0,1.705,0.609,3.141,1.837,4.297c1.221,1.157,2.707,1.825,4.46,2
			c0.526-2.099,1.246-4.349,2.164-6.755c0.088-0.265,0.263-0.7,0.524-1.314c0.437-0.962,1.183-2.313,2.231-4.065
			c1.445-2.056,2.473-3.477,3.086-4.266c1.266-1.576,2.494-2.844,3.671-3.803c5.119-4.201,9.603-6.302,13.453-6.302
			c2.968,0,4.456,1.358,4.456,4.069c0,4.197-2.209,8.419-6.624,12.661c-3.673,3.545-7.808,6.276-12.397,8.202
			c-3.283,1.354-6.582,2.033-9.909,2.033c0,0.391-0.075,0.983-0.228,1.771c-0.154,0.786-0.233,1.379-0.233,1.771
			c0,2.275,0.156,3.85,0.461,4.723c-0.174,0.221-0.305,0.328-0.393,0.328c-0.482,0-0.722-1.685-0.722-5.053
			c0-0.658,0.15-1.839,0.459-3.548c-2.67,0-4.789-0.664-6.367-1.999c-1.57-1.336-2.358-3.293-2.358-5.875
			c0-4.07,2.754-9.758,8.255-17.067c0.611-0.654,1.508-1.622,2.688-2.891c1.75-2.013,4.438-4.938,8.063-8.795
			c5.334-5.159,13.34-12.396,24.012-21.708c1.885-1.783,4.8-4.325,8.741-7.625c0.699-0.564,1.751-1.366,3.153-2.409
			c0.394-0.26,0.774-0.522,1.148-0.781c0.372-0.262,0.604-0.607,0.693-1.045c-0.183-0.131-0.421-0.194-0.727-0.194
			c-1.23,0-3.468,1.23-6.722,3.693c-1.57,1.191-3.879,2.996-6.932,5.416c-4.112,3.41-9.229,8.16-15.354,14.24
			C59.704,40.344,54.715,45.246,52.485,47.3c-1.05,1.01-2.688,2.432-4.921,4.269c-3.452,2.535-6.691,3.805-9.705,3.805
			c-0.57,0-1.367-0.23-2.398-0.691c-1.023-0.456-1.627-0.906-1.803-1.345c-0.436-0.569-0.653-1.444-0.653-2.628
			c0-3.195,1.901-7.271,5.706-12.218c1.446-1.882,5.314-6.282,11.614-13.202c4.767-5.254,7.806-9.22,9.12-11.889
			c0.611-1.271,0.921-2.605,0.921-4.008c0-2.627-1.117-4.754-3.351-6.371c-2.014-1.487-4.396-2.233-7.152-2.233
			c-3.716,0-7.259,0.305-10.627,0.92c-6.384,1.184-12.049,3.349-16.99,6.504c-6.301,4.028-10.773,7.678-13.42,10.94
			c-2.646,3.264-4.494,5.967-5.545,8.112c-1.441,2.936-2.16,6.11-2.16,9.529c0,2.891,0.946,5.182,2.851,6.864
			c1.902,1.687,4.319,2.529,7.253,2.529c4.679,0,9.578-1.879,14.693-5.64c4.594-3.37,8.134-7.328,10.629-11.876
			c1.006-1.751,1.507-3.545,1.507-5.379c0-1.839-0.601-3.392-1.802-4.662c-1.205-1.266-2.727-1.901-4.564-1.901
			c-2.709,0-4.589,0.485-5.641,1.445c-0.436,0.128-0.743,0.284-0.919,0.456l-0.196-0.328l0.4-0.26c2.107-1.27,3.908-1.9,5.401-1.9
			c2.507,0,4.493,0.664,5.966,1.997c1.475,1.337,2.21,3.229,2.21,5.677c0,2.49-0.989,5.312-2.956,8.462
			c-2.676,4.245-6.203,7.701-10.58,10.366c-4.605,2.803-9.312,4.197-14.135,4.197c-2.101,0-4.051-0.455-5.848-1.375
			c-1.972-1.007-3.395-2.406-4.27-4.199C0.377,39.692,0,38.116,0,36.545c0-1.533,0.396-3.62,1.182-6.267
			c0.787-2.647,1.6-4.668,2.428-6.069c2.754-4.635,6.035-8.531,9.842-11.678c4.506-3.672,10.037-6.799,16.599-9.383
			C35.342,1.051,41.489,0,48.489,0c5.944,0,10.277,1.576,12.988,4.73c1.183,1.354,1.772,2.781,1.772,4.271
			c0,3.59-1.423,7.376-4.269,11.36c-1.483,2.104-4.238,5.235-8.263,9.396c-4.899,4.993-8.859,9.59-11.873,13.793
			c-2.588,3.502-3.875,6.283-3.875,8.342c0,0.746,0.307,1.379,0.918,1.906c0.613,0.523,1.29,0.789,2.036,0.789
			c1.487,0,2.974-0.309,4.459-0.924c2.101-0.83,4.464-2.409,7.088-4.73c5.726-5.038,11.564-10.645,17.516-16.821
			c5.554-5.827,10.671-10.624,15.354-14.397c0.789-0.609,1.988-1.506,3.607-2.691c0.702-0.613,1.814-1.486,3.346-2.625
			c0.525-0.301,1.266-0.828,2.233-1.573c0.478-0.347,1.221-0.81,2.231-1.379h-0.064c0.741-0.435,1.373-0.63,1.898-0.587
			c0.22-0.266,0.484-0.395,0.787-0.395C98.041,8.465,98.895,8.924,98.938,9.841z M78.076,56.752c0-2.405-1.357-3.608-4.065-3.608
			c-4.856,0-10.394,3.587-16.603,10.759c-1.221,1.445-2.715,3.912-4.46,7.414c-0.917,1.836-1.534,3.129-1.835,3.872
			c-0.704,1.661-1.052,2.995-1.052,3.999c1.269,0,2.69-0.282,4.268-0.851c1.046-0.22,2.598-0.679,4.652-1.378
			c2.19-1.006,3.808-1.792,4.858-2.363c1.748-1.005,3.212-2.011,4.395-3.019c0.963-1.092,2.296-2.382,4.004-3.868
			C76.131,62.721,78.076,59.071,78.076,56.752z"/>
		<radialGradient id="SVGID_2_" cx="86.2124" cy="84.667" r="16.945" gradientUnits="userSpaceOnUse">
			<stop  offset="0.0386" style="stop-color:#F6E9D5"/>
			<stop  offset="0.1124" style="stop-color:#F4E1C1"/>
			<stop  offset="0.2173" style="stop-color:#F1D8A9"/>
			<stop  offset="0.3079" style="stop-color:#F0D39B"/>
			<stop  offset="0.3732" style="stop-color:#EFD296"/>
			<stop  offset="1" style="stop-color:#8B6F2B"/>
		</radialGradient>
		<path fill="url(#SVGID_2_)" d="M100.908,70.661c0,0.129-0.218,0.394-0.658,0.787c-3.365,3.193-6.034,5.948-8,8.265
			c-3.636,4.244-7.635,9.516-12.008,15.812c-1.444,2.101-2.341,3.37-2.689,3.805c-1.226,1.663-2.177,2.79-2.856,3.38
			c-0.676,0.592-1.321,0.887-1.933,0.887c-0.834,0-1.247-0.48-1.247-1.443c0-1.617,2.845-6.341,8.529-14.171l13.12-18.11
			l-0.194-0.066c-6.391,5.119-10.499,7.677-12.338,7.677c-1.139,0-1.709-0.522-1.709-1.573c0-1.967,1.907-4.723,5.712-8.268v-0.064
			c-0.7,0.482-1.751,1.268-3.146,2.362c-0.525,0.483-1.317,1.157-2.363,2.032c-0.265,0.176-0.482,0.264-0.658,0.264L78.407,72.1
			c0-0.453,1.639-1.963,4.921-4.534c1.571-1.217,3.144-1.826,4.722-1.826c0.305,0,0.564,0.07,0.786,0.201v0.133
			c0,0.047-1.091,1.474-3.279,4.284s-3.279,4.528-3.279,5.147c0,0.271,0.134,0.403,0.392,0.403c0.918,0,3.126-1.363,6.625-4.096
			c2.233-1.76,4.44-3.539,6.629-5.346c0.611-0.482,1.249-0.728,1.899-0.728c0.876,0,1.312,0.11,1.312,0.329
			c-16.576,22.479-24.861,34.267-24.861,35.363c0,0.043,0.019,0.1,0.062,0.163c0.048,0.064,0.091,0.097,0.131,0.097
			c0.352,0,0.898-0.501,1.644-1.51c3.671-5.115,7.367-10.232,11.088-15.352c4.416-5.817,8.68-10.452,12.793-13.91
			c0.352-0.303,0.589-0.456,0.722-0.456C100.843,70.464,100.908,70.528,100.908,70.661z"/>
		<radialGradient id="SVGID_3_" cx="109.0103" cy="71.5781" r="8.3061" gradientUnits="userSpaceOnUse">
			<stop  offset="0.0386" style="stop-color:#F6E9D5"/>
			<stop  offset="0.1124" style="stop-color:#F4E1C1"/>
			<stop  offset="0.2173" style="stop-color:#F1D8A9"/>
			<stop  offset="0.3079" style="stop-color:#F0D39B"/>
			<stop  offset="0.3732" style="stop-color:#EFD296"/>
			<stop  offset="1" style="stop-color:#8B6F2B"/>
		</radialGradient>
		<path fill="url(#SVGID_3_)" d="M119.277,70.661c-0.132,0.61-1.554,1.967-4.266,4.066c-2.188,1.705-4.022,2.558-5.511,2.558
			c-1.226,0-1.835-0.545-1.835-1.641c0-0.785,0.761-2.207,2.299-4.261c-2.196,1.967-3.657,3.212-4.402,3.738
			c-1.966,1.442-3.606,2.163-4.921,2.163c-1.264,0-1.898-0.501-1.898-1.508c0-0.264,0.132-0.787,0.132-0.787
			c0.35-1.139,1.138-1.705,2.362-1.705c0.742,0,1.116,0.225,1.116,0.673c0,0.132-0.051,0.359-0.134,0.671
			c-0.089,0.316-0.136,0.564-0.136,0.744c0,0.041,0.047,0.2,0.136,0.47c0.134,0.04,0.264,0.065,0.393,0.065
			c0.832,0,2.909-1.408,6.231-4.227c2.06-1.803,4.137-3.609,6.237-5.411c0.346-0.269,1.046-0.399,2.094-0.399
			c0.354,0,0.528,0.086,0.528,0.263c0,0.089-1.114,1.464-3.345,4.135c-2.235,2.667-3.349,4.349-3.349,5.05
			c0.132,0.394,0.286,0.59,0.46,0.59c0.745,0,2.075-0.842,4.004-2.528C117.394,71.7,118.663,70.79,119.277,70.661z"/>
		<g>
			<radialGradient id="SVGID_4_" cx="142.1074" cy="70.3975" r="18.1742" gradientUnits="userSpaceOnUse">
				<stop  offset="0.0386" style="stop-color:#F6E9D5"/>
				<stop  offset="0.1124" style="stop-color:#F4E1C1"/>
				<stop  offset="0.2173" style="stop-color:#F1D8A9"/>
				<stop  offset="0.3079" style="stop-color:#F0D39B"/>
				<stop  offset="0.3732" style="stop-color:#EFD296"/>
				<stop  offset="1" style="stop-color:#8B6F2B"/>
			</radialGradient>
			<path fill="url(#SVGID_4_)" d="M163.694,67.467c0,0.178-0.08,0.434-0.23,0.771c-0.155,0.333-0.233,0.547-0.233,0.636
				c0,0.448,0.506,0.673,1.509,0.673c1.359,0,2.036-0.656,2.036-1.971c0-1.225-0.896-1.837-2.69-1.837
				c-1.884,0-4.199,1.036-6.952,3.108c-1.052,0.795-3.022,2.49-5.908,5.094l-0.127-0.066c2.363-3.193,4.109-5.599,5.244-7.216
				v-0.133c0-0.524-0.417-0.787-1.244-0.787c-0.522,0-1.849,0.874-3.972,2.623c-1.424,1.174-4.314,3.8-5.54,4.79
				c-2.276,1.838-3.808,2.733-4.598,2.69h-0.324c-0.132-0.131-0.194-0.263-0.194-0.393c0-0.787,0.918-2.197,2.755-4.232
				c1.836-2.034,2.754-3.247,2.754-3.642c0-0.744-0.744-1.169-2.229-1.28c-1.489-0.108-2.235-0.317-2.235-0.623
				c0-0.304,0.221-0.654,0.659-1.049c0.303-0.263,0.632-0.525,0.981-0.788c-0.176-0.438-0.567-0.656-1.178-0.656
				c-0.701,0-1.365,0.219-2.005,0.656c-0.629,0.439-0.948,0.984-0.948,1.644c0,0.436,0.148,0.743,0.459,0.916
				c-2.145,2.145-5.766,5.282-6.69,6.037c-1.267,1.048-2.409,1.573-3.412,1.573c-0.134,0-0.263-0.021-0.395-0.066
				c2.494-2.355,3.739-4.312,3.739-5.867c0-0.443-0.142-0.942-0.422-1.499c-0.288-0.558-0.623-0.834-1.021-0.834
				c-0.261,0-0.395,0.089-0.395,0.266c0,0.091,0.035,0.211,0.1,0.367c0.066,0.154,0.099,0.272,0.099,0.364
				c0,0.797-0.064,1.35-0.198,1.66c-1.618,0.705-2.712,2.21-3.28,4.514c-2.364,2.699-4.396,4.049-6.099,4.049
				c-0.614,0-0.918-0.307-0.918-0.92c0-1.357,1.113-3.171,3.344-5.443c2.013-2.057,3.744-3.436,5.184-4.135
				c0.438-0.217,1.784-0.547,1.83-0.59c0,0,0.202-0.123-0.398-0.255c-1.472-0.316-5.039,0.845-7.534,2.158
				c-2.319,1.269-4.156,2.623-5.511,4.065l-0.065,0.266v0.129c0,0.045,0.025,0.066,0.065,0.066c0.263,0,0.963-0.568,2.097-1.705
				v0.065c-1.221,1.399-1.834,2.909-1.834,4.527c0,1.617,1.07,2.427,3.214,2.427c1.923,0,4.418-1.072,7.479-3.218
				c0.22,0.132,0.614,0.198,1.183,0.198c0.655,0,2.037-0.461,3.479-1.573c1.273-0.981,3.211-2.783,3.75-3.279
				c1.8-1.663,2.835-2.69,3.098-3.084c0.521,0.13,0.822,0.196,0.912,0.196c0.171,0,0.431,0,0.783,0c0.346,0,0.605,0,0.781,0
				c1.128,0,1.694,0.152,1.694,0.457c0,0.041-1.237,1.162-3.707,3.357c-2.474,2.194-3.708,3.943-3.708,5.248
				c0,1.045,0.68,1.563,2.035,1.563c1.531,0,3.475-0.88,5.84-2.646c2.275-1.698,5.423-4.682,6.296-5.554v0.067
				c-3.103,3.944-4.66,6.499-4.66,7.663c0,0.136,0,0.226,0,0.27c0.179,0.136,0.528,0.2,1.055,0.2c0.916,0,3.308-1.825,7.184-5.476
				c3.871-3.652,6.61-5.479,8.23-5.479C163.363,66.526,163.694,66.842,163.694,67.467z"/>
			<radialGradient id="SVGID_5_" cx="173.3027" cy="71.6104" r="12.8658" gradientUnits="userSpaceOnUse">
				<stop  offset="0.0386" style="stop-color:#F6E9D5"/>
				<stop  offset="0.1124" style="stop-color:#F4E1C1"/>
				<stop  offset="0.2173" style="stop-color:#F1D8A9"/>
				<stop  offset="0.3079" style="stop-color:#F0D39B"/>
				<stop  offset="0.3732" style="stop-color:#EFD296"/>
				<stop  offset="1" style="stop-color:#8B6F2B"/>
			</radialGradient>
			<path fill="url(#SVGID_5_)" d="M189.672,70.928c-3.323,3.363-5.73,5.047-7.216,5.047c-0.174,0-0.306-0.057-0.396-0.166
				c-0.088-0.111-0.129-0.255-0.129-0.434c0-0.662,1.102-2.323,3.309-4.982c2.211-2.658,3.318-4.098,3.318-4.32
				c0-0.22-0.463-0.333-1.374-0.333c-0.701,0-1.341,0.245-1.911,0.731c-7.65,6.336-12.007,9.504-13.053,9.504
				c-0.216,0-0.371-0.067-0.458-0.201c-0.09-0.136-0.153-0.226-0.196-0.271c0-0.625,0.98-2.22,2.95-4.777
				c2.363-3.1,3.565-4.692,3.611-4.784c-0.089-0.131-0.351-0.201-0.787-0.201c-1.316,0-3.108,0.791-5.381,2.366
				c-1.762,1.211-5.071,4.407-5.939,5.147c-2.08,1.771-3.595,2.655-4.562,2.655c-0.521,0-0.925-0.732-1.214-2.199
				c-0.282-1.463-1.016-2.196-2.194-2.196c-0.875,0-1.531,0.195-1.968,0.593c0.702-0.266,1.052,0.412,1.052,2.032
				c0,1.094,0.082,1.856,0.261,2.295c0.35,0.7,1.007,1.049,1.968,1.049c1.485,0,3.365-0.858,5.642-2.582
				c0.568-0.441,1.396-1.146,2.495-2.118c0.3-0.273,0.873-0.775,0.92-0.811c1.047-0.875,1.835-1.549,2.362-2.032
				c1.396-1.095,2.446-1.88,3.146-2.362v0.064c-3.937,3.791-5.909,6.54-5.909,8.256c0,1.062,0.722,1.585,2.167,1.585
				c1.928,0,5.819-2.448,11.682-7.347l0.128,0.134c-2.403,2.424-3.607,4.304-3.607,5.626c0,1.062,0.679,1.587,2.034,1.587
				c1.445,0,3.327-0.88,5.64-2.646c2.979-2.297,4.465-3.71,4.465-4.239v-0.067L189.672,70.928z"/>
		</g>
		<radialGradient id="SVGID_6_" cx="175.4844" cy="113.6309" r="71.7875" gradientUnits="userSpaceOnUse">
			<stop  offset="0.0386" style="stop-color:#F6E9D5"/>
			<stop  offset="0.1124" style="stop-color:#F4E1C1"/>
			<stop  offset="0.2173" style="stop-color:#F1D8A9"/>
			<stop  offset="0.3079" style="stop-color:#F0D39B"/>
			<stop  offset="0.3732" style="stop-color:#EFD296"/>
			<stop  offset="1" style="stop-color:#8B6F2B"/>
		</radialGradient>
		<path fill="url(#SVGID_6_)" d="M269.829,88.009c0,4.987-3.475,8.858-10.432,11.612c-5.293,2.103-10.891,3.148-16.793,3.148
			c-4.944,0-11.834-0.766-20.669-2.293c-6.821,5.417-13.229,11.466-19.223,18.146c-8.442,9.392-12.659,16.708-12.659,21.946
			c0,1.706,0.5,3.125,1.506,4.262c1.007,1.134,2.363,1.702,4.064,1.702c2.452,0,4.66-0.612,6.632-1.831
			c2.668-1.655,4.983-3.683,6.956-6.081c2.36-2.922,3.536-5.689,3.536-8.306c0-2.442-1.244-3.664-3.738-3.664
			c-2.45,0-5.05,1.423-7.806,4.268c-2.492,2.582-3.74,5.181-3.74,7.806c0,0.573-0.129,0.855-0.393,0.855
			c-0.135,0-0.2-0.416-0.2-1.247c0-2.802,1.271-5.555,3.81-8.267c2.535-2.714,5.179-4.066,7.933-4.066
			c3.505,0,5.253,1.702,5.253,5.114c0,4.241-2.013,8.05-6.036,11.415c-3.848,3.193-7.935,4.793-12.268,4.793
			c-2.405,0-4.31-0.66-5.707-1.971c-1.403-1.312-2.101-3.148-2.101-5.51c0-9.623,10.039-23.029,30.111-40.221
			c-2.01-0.434-3.542-0.744-4.592-0.916c-7.741,6.385-16.313,14.479-25.719,24.273c-8.004,8.661-16.027,17.298-24.076,25.916
			c-1.225,1.312-2.228,1.969-3.018,1.969c-1.054,0-1.572-0.589-1.572-1.771c0-1.794,1.747-5.317,5.243-10.564
			c8.271-12.419,20.733-26.504,37.402-42.25c-1.929-0.305-3.393-0.568-4.402-0.791c-5.595,5.076-10.934,10.107-16.003,15.092
			c-9.142,9.012-15.79,15.289-19.949,18.831c-7.915,6.824-15.439,11.962-22.567,15.417c-8.75,4.2-17.56,6.301-26.441,6.301
			c-8.396,0-15.306-1.443-20.728-4.332c-6.869-3.715-10.305-9.428-10.305-17.122c0-7.394,3.521-13.865,10.563-19.423
			c8.226-6.473,18.282-10.016,30.182-10.629c2.581-4.064,7.018-7.061,13.32-8.984c4.892-1.487,10.363-2.231,16.4-2.231
			c9.619,0,24.646,2.057,45.07,6.165c10.895-9.753,17.499-14.63,19.817-14.63c1.354,0,2.031,0.547,2.031,1.64
			c0,1.225-1.814,3.762-5.444,7.611c-2.45,2.404-4.876,4.809-7.285,7.218l7.154,1.378c6.344-5.118,12.79-9.625,19.35-13.514
			c9.146-5.428,16.208-8.139,21.192-8.139c3.808,0,6.215,1.269,7.219,3.806c2.579,0.174,4.679,0.917,6.301,2.23
			C268.89,83.613,269.829,85.562,269.829,88.009z M196.018,95.16c-17.1-3.279-31.422-4.918-42.971-4.918
			c-14.785,0-24.731,3.106-29.851,9.314h0.723c6.732-0.044,12.596,1.073,17.58,3.346c6.521,2.978,9.776,7.439,9.776,13.387
			c0,5.946-3.523,11.063-10.561,15.351c-6.694,4.068-14.084,6.102-22.179,6.102c-4.2,0-8.068-0.831-11.614-2.495
			c-4.5-2.097-6.758-4.985-6.758-8.658c0-0.436,0.075-1.037,0.231-1.805c0.155-0.763,0.364-1.083,0.624-0.951l0.064,0.197
			c-0.22,1.486-0.324,2.144-0.324,1.971c0,3.673,2.052,6.384,6.162,8.131c3.018,1.27,6.649,1.904,10.893,1.904
			c4.94,0,9.864-0.809,14.763-2.427c5.334-1.751,9.679-4.19,13.026-7.315c3.345-3.126,5.016-6.44,5.016-9.937
			c0-5.471-2.911-9.431-8.727-11.878c-4.111-1.709-9.38-2.558-15.808-2.558c-1.359,0-2.733,0.042-4.135,0.13
			c-0.919,1.84-1.381,3.869-1.381,6.102c0,3.674,1.422,6.648,4.267,8.924c2.667,2.096,5.883,3.146,9.647,3.146
			c0.349,0,0.85-0.097,1.507-0.295c0.658-0.195,1.135-0.294,1.442-0.294l0.133,0.065c-1.403,0.743-2.559,1.113-3.478,1.113
			c-4.027,0-7.372-1.2-10.039-3.606c-2.801-2.493-4.2-5.71-4.2-9.646c0-1.967,0.352-3.762,1.051-5.381
			c-10.979,0.568-20.488,3.826-28.538,9.78c-7.044,5.202-10.564,11.107-10.564,17.713c0,6.999,3.411,12.135,10.236,15.417
			c5.16,2.491,11.653,3.738,19.484,3.738c11.506,0,22.545-2.996,33.133-8.986c8.134-4.596,17.188-11.768,27.163-21.521
			C181.78,108.568,189.855,100.849,196.018,95.16z M212.149,98.568l-7.014-1.419c-17.934,17.316-31.598,32.554-41.003,45.714
			c-2.577,3.625-3.891,5.922-3.933,6.884l0.195,0.329c0.479,0.131,1.353-0.481,2.623-1.836c3.367-3.756,8.484-9.369,15.349-16.842
			c7.217-7.689,12.659-13.345,16.332-16.973C200.869,108.27,206.686,102.979,212.149,98.568z M217.343,81.249
			c0-0.392-0.217-0.586-0.656-0.586c-2.101,0-8.374,4.726-18.831,14.175c3.02,0.564,4.484,0.849,4.4,0.849
			c2.489-2.222,5.006-4.42,7.542-6.598C213.688,85.518,216.204,82.906,217.343,81.249z M259.986,79.876
			c-0.918-1.754-3.213-2.626-6.884-2.626c-4.854,0-11.658,2.582-20.405,7.743c-6.303,3.715-12.487,8.047-18.568,12.99
			c1.004,0.176,2.511,0.415,4.528,0.722c7.082-5.727,13.469-10.061,19.157-12.989C245.515,81.821,252.9,79.876,259.986,79.876z
			 M268.978,88.009c0-2.534-1.029-4.436-3.089-5.708c-1.755-1.092-3.962-1.638-6.639-1.638c-6,0-12.527,2.098-19.578,6.297
			c-4.159,2.451-9.783,6.605-16.884,12.468c8.014,1.227,15.072,1.835,21.157,1.835c5.557,0,10.729-0.896,15.504-2.689
			C265.799,96.125,268.978,92.602,268.978,88.009z"/>
		<linearGradient id="SVGID_7_" gradientUnits="userSpaceOnUse" x1="200.7256" y1="64.6519" x2="230.0215" y2="64.6519">
			<stop  offset="0.0386" style="stop-color:#F6E9D5"/>
			<stop  offset="0.1124" style="stop-color:#F4E1C1"/>
			<stop  offset="0.2173" style="stop-color:#F1D8A9"/>
			<stop  offset="0.3079" style="stop-color:#F0D39B"/>
			<stop  offset="0.3732" style="stop-color:#EFD296"/>
			<stop  offset="1" style="stop-color:#8B6F2B"/>
		</linearGradient>
		<path fill="url(#SVGID_7_)" d="M220.353,63.996c-1.998-0.027-4.692-11.445-4.979-12.683c-0.287,1.237-2.988,12.655-4.981,12.683
			c-5.089-4.568-9.667-0.885-9.667-0.885s8.008,0.685,8.196,10.972c0.085,1.251,0.182,2.503,0.023,3.907h3.116
			c-0.06-8.369-1.413-9.886-1.413-9.886l4.726,4.089l4.727-4.089c0,0-1.359,1.517-1.419,9.886h3.117
			c-0.158-1.404-0.058-2.656,0.021-3.907c0.193-10.287,8.201-10.972,8.201-10.972S225.438,59.428,220.353,63.996z"/>
	</g>
</g>
</svg>
