<?xml version="1.0" encoding="utf-8"?>
<!-- Generator: Adobe Illustrator 16.0.0, SVG Export Plug-In . SVG Version: 6.00 Build 0)  -->
<!DOCTYPE svg PUBLIC "-//W3C//DTD SVG 1.1//EN" "http://www.w3.org/Graphics/SVG/1.1/DTD/svg11.dtd">
<svg version="1.1" id="Layer_1" xmlns="http://www.w3.org/2000/svg" xmlns:xlink="http://www.w3.org/1999/xlink" x="0px" y="0px"
	 width="116.475px" height="65.234px" viewBox="0 0 116.475 65.234" enable-background="new 0 0 116.475 65.234"
	 xml:space="preserve">
<g>
	<path fill="#21150C" d="M42.707,4.247c-0.227,0.511-0.801,1.181-1.727,2.012c-0.717,0.585-1.434,1.18-2.152,1.782
		c-1.625,1.398-3.768,3.4-6.43,6.006c-1.719,1.643-3.437,3.295-5.152,4.956c-2.531,2.548-4.504,4.749-5.92,6.599
		c-1.89,2.491-2.832,4.446-2.832,5.862c0,0.736,0.264,1.355,0.793,1.854c0.527,0.499,1.17,0.788,1.926,0.864
		c0.227-0.907,0.538-1.878,0.934-2.917c0.038-0.113,0.114-0.302,0.227-0.566c0.189-0.416,0.51-1,0.963-1.756
		c0.624-0.888,1.068-1.501,1.332-1.84c0.547-0.682,1.077-1.229,1.586-1.643c2.209-1.812,4.145-2.721,5.807-2.721
		c1.281,0,1.924,0.587,1.924,1.757c0,1.812-0.954,3.635-2.859,5.466c-1.586,1.53-3.371,2.709-5.352,3.54
		c-1.418,0.584-2.842,0.877-4.277,0.877c0,0.17-0.033,0.426-0.099,0.766c-0.067,0.339-0.101,0.596-0.101,0.765
		c0,0.982,0.067,1.661,0.199,2.039c-0.076,0.096-0.132,0.141-0.17,0.141c-0.207,0-0.311-0.727-0.311-2.18
		c0-0.284,0.064-0.795,0.197-1.532c-1.152,0-2.067-0.287-2.748-0.863c-0.679-0.576-1.02-1.421-1.02-2.536
		c0-1.757,1.189-4.212,3.564-7.367c0.264-0.282,0.65-0.7,1.16-1.247c0.756-0.868,1.916-2.133,3.48-3.797
		c2.303-2.227,5.758-5.351,10.365-9.371c0.814-0.77,2.072-1.866,3.773-3.29c0.303-0.244,0.756-0.591,1.361-1.041
		c0.17-0.112,0.334-0.226,0.495-0.337c0.161-0.112,0.261-0.263,0.3-0.451c-0.078-0.056-0.182-0.083-0.314-0.083
		c-0.531,0-1.496,0.53-2.901,1.595c-0.678,0.513-1.675,1.292-2.991,2.337c-1.775,1.472-3.984,3.522-6.628,6.146
		c-3.339,3.342-5.491,5.459-6.454,6.345c-0.454,0.437-1.161,1.05-2.125,1.843c-1.49,1.095-2.889,1.643-4.189,1.643
		c-0.246,0-0.59-0.1-1.035-0.299c-0.441-0.197-0.702-0.391-0.777-0.58c-0.188-0.246-0.283-0.624-0.283-1.135
		c0-1.379,0.821-3.139,2.463-5.273c0.625-0.812,2.295-2.712,5.014-5.699c2.058-2.268,3.369-3.98,3.938-5.132
		c0.264-0.549,0.396-1.125,0.396-1.73c0-1.134-0.482-2.052-1.445-2.75c-0.869-0.643-1.897-0.964-3.088-0.964
		c-1.604,0-3.134,0.131-4.587,0.396c-2.756,0.512-5.202,1.446-7.335,2.809C6.883,5.283,4.952,6.858,3.809,8.268
		c-1.141,1.407-1.939,2.575-2.393,3.501c-0.623,1.268-0.934,2.638-0.934,4.114c0,1.247,0.41,2.236,1.231,2.962
		c0.821,0.729,1.864,1.093,3.131,1.093c2.02,0,4.134-0.812,6.343-2.436c1.982-1.455,3.51-3.163,4.588-5.125
		c0.434-0.757,0.65-1.531,0.65-2.322c0-0.795-0.26-1.465-0.777-2.014c-0.52-0.545-1.178-0.82-1.971-0.82
		c-1.17,0-1.98,0.21-2.435,0.623c-0.188,0.058-0.321,0.124-0.397,0.197l-0.084-0.14l0.172-0.113c0.91-0.548,1.688-0.821,2.332-0.821
		c1.082,0,1.939,0.287,2.576,0.863c0.636,0.576,0.953,1.393,0.953,2.449c0,1.076-0.427,2.294-1.275,3.654
		c-1.155,1.831-2.678,3.324-4.567,4.475C8.965,19.617,6.932,20.22,4.85,20.22c-0.906,0-1.746-0.196-2.523-0.595
		c-0.852-0.434-1.465-1.038-1.844-1.812C0.162,17.134,0,16.453,0,15.774c0-0.662,0.17-1.562,0.51-2.704
		c0.34-1.144,0.689-2.016,1.048-2.621c1.188-2,2.604-3.682,4.248-5.039c1.945-1.586,4.333-2.937,7.165-4.052
		C15.256,0.453,17.908,0,20.931,0c2.565,0,4.437,0.68,5.606,2.042c0.51,0.585,0.766,1.2,0.766,1.843c0,1.55-0.615,3.186-1.843,4.904
		c-0.642,0.909-1.83,2.26-3.567,4.055c-2.115,2.156-3.824,4.141-5.125,5.954c-1.117,1.513-1.672,2.713-1.672,3.602
		c0,0.323,0.131,0.595,0.396,0.823c0.265,0.226,0.557,0.34,0.879,0.34c0.642,0,1.284-0.132,1.925-0.398
		c0.906-0.357,1.928-1.039,3.06-2.041c2.472-2.176,4.991-4.596,7.561-7.262c2.397-2.516,4.606-4.586,6.628-6.214
		c0.34-0.265,0.858-0.651,1.557-1.162c0.304-0.266,0.783-0.642,1.445-1.134c0.227-0.13,0.547-0.357,0.964-0.68
		c0.206-0.148,0.526-0.349,0.962-0.595h-0.027c0.32-0.188,0.594-0.271,0.82-0.253c0.094-0.115,0.209-0.171,0.34-0.171
		C42.32,3.653,42.688,3.852,42.707,4.247z M33.702,24.497c0-1.038-0.587-1.558-1.755-1.558c-2.096,0-4.486,1.548-7.166,4.646
		c-0.527,0.623-1.172,1.688-1.926,3.199c-0.396,0.793-0.662,1.351-0.793,1.671c-0.303,0.719-0.453,1.293-0.453,1.728
		c0.547,0,1.161-0.123,1.842-0.368c0.451-0.096,1.122-0.293,2.009-0.595c0.944-0.434,1.644-0.772,2.097-1.02
		c0.754-0.435,1.387-0.868,1.896-1.304c0.416-0.471,0.99-1.027,1.729-1.67C32.861,27.074,33.702,25.498,33.702,24.497z"/>
	<path fill="#21150C" d="M43.559,30.502c0,0.055-0.095,0.17-0.285,0.339c-1.453,1.378-2.604,2.568-3.453,3.567
		c-1.57,1.832-3.295,4.108-5.184,6.826c-0.623,0.906-1.011,1.455-1.161,1.643c-0.528,0.717-0.938,1.203-1.231,1.459
		c-0.293,0.254-0.572,0.381-0.836,0.381c-0.359,0-0.538-0.206-0.538-0.621c0-0.698,1.228-2.738,3.683-6.117l5.663-7.817
		l-0.084-0.029c-2.759,2.209-4.532,3.313-5.325,3.313c-0.492,0-0.738-0.226-0.738-0.679c0-0.85,0.824-2.038,2.465-3.569V29.17
		c-0.302,0.208-0.754,0.547-1.357,1.021c-0.227,0.207-0.568,0.499-1.02,0.876c-0.113,0.076-0.209,0.113-0.285,0.113l-0.025-0.058
		c0-0.194,0.707-0.847,2.123-1.956c0.678-0.526,1.357-0.789,2.039-0.789c0.131,0,0.242,0.029,0.339,0.086v0.058
		c0,0.021-0.472,0.637-1.417,1.851c-0.943,1.213-1.414,1.954-1.414,2.221c0,0.117,0.057,0.175,0.169,0.175
		c0.396,0,1.35-0.589,2.86-1.768c0.964-0.761,1.916-1.528,2.861-2.309c0.263-0.207,0.539-0.313,0.82-0.313
		c0.377,0,0.564,0.047,0.564,0.143c-7.154,9.703-10.73,14.791-10.73,15.264c0,0.018,0.008,0.043,0.027,0.072
		c0.02,0.027,0.039,0.041,0.057,0.041c0.15,0,0.387-0.217,0.709-0.652c1.584-2.207,3.18-4.416,4.786-6.627
		c1.907-2.511,3.746-4.512,5.521-6.004c0.151-0.131,0.255-0.197,0.312-0.197S43.559,30.444,43.559,30.502z"/>
	<path fill="#21150C" d="M51.488,30.502c-0.059,0.263-0.672,0.848-1.844,1.754c-0.943,0.737-1.735,1.105-2.377,1.105
		c-0.529,0-0.793-0.236-0.793-0.709c0-0.339,0.329-0.953,0.992-1.84c-0.947,0.85-1.578,1.388-1.9,1.613
		c-0.848,0.624-1.557,0.936-2.124,0.936c-0.546,0-0.819-0.217-0.819-0.651c0-0.114,0.057-0.341,0.057-0.341
		c0.151-0.49,0.491-0.735,1.02-0.735c0.32,0,0.482,0.097,0.482,0.291c0,0.058-0.021,0.155-0.059,0.289
		c-0.037,0.137-0.057,0.243-0.057,0.321c0,0.019,0.02,0.087,0.057,0.203c0.059,0.018,0.115,0.028,0.17,0.028
		c0.359,0,1.256-0.608,2.69-1.825c0.889-0.778,1.785-1.558,2.692-2.336c0.149-0.115,0.451-0.172,0.904-0.172
		c0.152,0,0.228,0.037,0.228,0.113c0,0.039-0.481,0.633-1.444,1.785c-0.965,1.15-1.445,1.878-1.445,2.18
		c0.058,0.17,0.123,0.255,0.198,0.255c0.322,0,0.896-0.364,1.729-1.092C50.674,30.949,51.223,30.557,51.488,30.502z"/>
	<g>
		<path fill="#21150C" d="M70.659,29.122c0,0.077-0.032,0.188-0.099,0.334c-0.066,0.144-0.101,0.235-0.101,0.274
			c0,0.192,0.218,0.289,0.651,0.289c0.586,0,0.879-0.283,0.879-0.85c0-0.529-0.387-0.793-1.161-0.793
			c-0.813,0-1.812,0.447-3.001,1.342c-0.453,0.343-1.305,1.076-2.551,2.198l-0.056-0.028c1.021-1.379,1.774-2.416,2.265-3.115
			v-0.057c0-0.227-0.18-0.34-0.537-0.34c-0.225,0-0.798,0.379-1.715,1.132c-0.613,0.507-1.861,1.641-2.391,2.068
			c-0.982,0.792-1.644,1.181-1.985,1.161h-0.14c-0.057-0.057-0.084-0.113-0.084-0.169c0-0.34,0.396-0.949,1.189-1.828
			c0.793-0.878,1.188-1.401,1.188-1.571c0-0.321-0.321-0.505-0.962-0.553c-0.643-0.047-0.965-0.137-0.965-0.269
			s0.096-0.283,0.284-0.453c0.132-0.114,0.272-0.228,0.425-0.34c-0.076-0.188-0.246-0.283-0.51-0.283
			c-0.302,0-0.59,0.095-0.865,0.283c-0.271,0.188-0.408,0.425-0.408,0.708c0,0.189,0.063,0.322,0.197,0.396
			c-0.925,0.926-2.488,2.279-2.888,2.605c-0.547,0.453-1.04,0.68-1.474,0.68c-0.057,0-0.113-0.01-0.17-0.028
			c1.077-1.018,1.615-1.861,1.615-2.533c0-0.192-0.062-0.407-0.184-0.646c-0.123-0.241-0.27-0.36-0.441-0.36
			c-0.111,0-0.169,0.039-0.169,0.114c0,0.04,0.015,0.092,0.042,0.159c0.029,0.066,0.044,0.117,0.044,0.156
			c0,0.344-0.028,0.583-0.086,0.717c-0.698,0.305-1.171,0.954-1.417,1.947c-1.02,1.167-1.896,1.749-2.631,1.749
			c-0.266,0-0.396-0.132-0.396-0.397c0-0.585,0.48-1.368,1.443-2.35c0.868-0.888,1.615-1.482,2.236-1.784
			c0.189-0.094,0.771-0.237,0.791-0.255c0,0,0.087-0.053-0.172-0.11c-0.636-0.136-2.176,0.365-3.253,0.933
			c-1.001,0.547-1.794,1.131-2.378,1.755l-0.029,0.114v0.055c0,0.021,0.012,0.029,0.029,0.029c0.113,0,0.414-0.245,0.904-0.736
			v0.029c-0.527,0.604-0.791,1.256-0.791,1.953c0,0.699,0.461,1.048,1.387,1.048c0.83,0,1.907-0.464,3.229-1.388
			c0.096,0.057,0.266,0.085,0.511,0.085c0.282,0,0.878-0.2,1.501-0.68c0.551-0.424,1.387-1.201,1.619-1.415
			c0.778-0.718,1.225-1.162,1.337-1.332c0.226,0.057,0.356,0.085,0.395,0.085c0.074,0,0.187,0,0.338,0c0.149,0,0.261,0,0.337,0
			c0.486,0,0.732,0.065,0.732,0.198c0,0.018-0.535,0.501-1.601,1.449c-1.067,0.946-1.601,1.701-1.601,2.266
			c0,0.449,0.293,0.674,0.878,0.674c0.661,0,1.5-0.38,2.521-1.143c0.982-0.733,2.342-2.021,2.719-2.396v0.028
			c-1.34,1.704-2.012,2.806-2.012,3.309c0,0.058,0,0.097,0,0.116c0.076,0.059,0.228,0.086,0.455,0.086
			c0.395,0,1.428-0.787,3.1-2.363s2.855-2.365,3.555-2.365C70.518,28.717,70.659,28.853,70.659,29.122z"/>
		<path fill="#21150C" d="M81.873,30.617c-1.434,1.451-2.473,2.178-3.114,2.178c-0.075,0-0.132-0.023-0.171-0.071
			c-0.037-0.048-0.057-0.11-0.057-0.187c0-0.287,0.477-1.004,1.43-2.152c0.955-1.146,1.432-1.769,1.432-1.865
			c0-0.094-0.199-0.143-0.594-0.143c-0.303,0-0.578,0.106-0.824,0.314c-3.303,2.736-5.182,4.104-5.635,4.104
			c-0.094,0-0.16-0.029-0.197-0.087c-0.039-0.059-0.066-0.097-0.084-0.117c0-0.27,0.423-0.958,1.273-2.062
			c1.02-1.338,1.539-2.026,1.559-2.066c-0.039-0.057-0.152-0.086-0.34-0.086c-0.568,0-1.342,0.342-2.323,1.021
			c-0.761,0.522-2.19,1.902-2.563,2.222c-0.898,0.765-1.552,1.146-1.969,1.146c-0.225,0-0.4-0.317-0.523-0.949
			s-0.439-0.949-0.949-0.949c-0.377,0-0.66,0.086-0.848,0.257c0.301-0.114,0.453,0.178,0.453,0.877c0,0.473,0.035,0.802,0.111,0.991
			c0.152,0.302,0.436,0.452,0.851,0.452c0.642,0,1.452-0.371,2.435-1.113c0.246-0.191,0.604-0.496,1.078-0.916
			c0.129-0.117,0.375-0.336,0.396-0.35c0.451-0.377,0.793-0.669,1.02-0.876c0.604-0.474,1.057-0.812,1.357-1.021v0.027
			c-1.699,1.636-2.55,2.823-2.55,3.564c0,0.458,0.312,0.684,0.935,0.684c0.832,0,2.513-1.057,5.043-3.171l0.057,0.058
			c-1.039,1.047-1.559,1.857-1.559,2.43c0,0.457,0.293,0.684,0.878,0.684c0.624,0,1.437-0.38,2.435-1.143
			c1.287-0.991,1.928-1.601,1.928-1.829v-0.029L81.873,30.617z"/>
	</g>
	<path fill="#21150C" d="M116.475,37.99c0,2.153-1.5,3.824-4.503,5.013c-2.284,0.907-4.7,1.358-7.249,1.358
		c-2.135,0-5.107-0.33-8.922-0.988c-2.945,2.337-5.711,4.947-8.299,7.832c-3.643,4.054-5.463,7.212-5.463,9.474
		c0,0.736,0.215,1.348,0.65,1.839c0.434,0.49,1.02,0.735,1.755,0.735c1.058,0,2.011-0.265,2.86-0.791
		c1.152-0.714,2.152-1.59,3.004-2.625c1.019-1.261,1.527-2.456,1.527-3.585c0-1.055-0.539-1.581-1.613-1.581
		c-1.059,0-2.182,0.614-3.371,1.842c-1.076,1.114-1.614,2.235-1.614,3.37c0,0.246-0.056,0.367-0.17,0.367
		c-0.058,0-0.086-0.18-0.086-0.537c0-1.21,0.548-2.398,1.644-3.569s2.237-1.755,3.426-1.755c1.512,0,2.268,0.735,2.268,2.207
		c0,1.832-0.87,3.475-2.607,4.929c-1.66,1.378-3.425,2.069-5.295,2.069c-1.038,0-1.859-0.285-2.463-0.852
		c-0.605-0.566-0.908-1.358-0.908-2.377c0-4.154,4.334-9.941,13-17.362c-0.869-0.188-1.529-0.321-1.982-0.396
		c-3.342,2.756-7.043,6.249-11.102,10.478c-3.455,3.739-6.92,7.468-10.393,11.187c-0.529,0.566-0.963,0.85-1.303,0.85
		c-0.455,0-0.68-0.254-0.68-0.764c0-0.775,0.754-2.296,2.264-4.561c3.57-5.361,8.95-11.441,16.145-18.238
		c-0.832-0.132-1.465-0.244-1.898-0.34c-2.416,2.19-4.721,4.362-6.909,6.514c-3.947,3.89-6.815,6.6-8.61,8.128
		c-3.418,2.946-6.666,5.163-9.742,6.655c-3.777,1.812-7.58,2.719-11.414,2.719c-3.625,0-6.607-0.622-8.947-1.869
		c-2.965-1.604-4.447-4.068-4.447-7.391c0-3.191,1.52-5.984,4.559-8.385c3.551-2.793,7.893-4.322,13.029-4.587
		c1.113-1.755,3.029-3.049,5.749-3.878c2.112-0.644,4.474-0.965,7.079-0.965c4.153,0,10.64,0.888,19.455,2.661
		c4.703-4.209,7.555-6.314,8.556-6.314c0.583,0,0.876,0.236,0.876,0.708c0,0.529-0.783,1.623-2.35,3.285
		c-1.059,1.038-2.105,2.076-3.145,3.116l3.088,0.593c2.737-2.208,5.521-4.152,8.353-5.832c3.948-2.343,6.997-3.513,9.149-3.513
		c1.643,0,2.68,0.548,3.115,1.643c1.113,0.076,2.02,0.396,2.719,0.962C116.069,36.092,116.475,36.934,116.475,37.99z M84.613,41.077
		c-7.383-1.416-13.564-2.124-18.549-2.124c-6.383,0-10.676,1.342-12.886,4.021h0.312c2.906-0.02,5.438,0.463,7.59,1.443
		c2.814,1.285,4.22,3.212,4.22,5.778c0,2.567-1.521,4.776-4.56,6.628c-2.889,1.756-6.079,2.633-9.573,2.633
		c-1.812,0-3.483-0.357-5.013-1.076c-1.943-0.905-2.917-2.152-2.917-3.738c0-0.188,0.032-0.447,0.099-0.778
		c0.067-0.33,0.157-0.468,0.27-0.411l0.028,0.085c-0.095,0.642-0.141,0.926-0.141,0.851c0,1.586,0.887,2.756,2.661,3.511
		c1.303,0.548,2.869,0.821,4.701,0.821c2.133,0,4.258-0.349,6.373-1.047c2.302-0.756,4.178-1.809,5.622-3.158
		s2.165-2.781,2.165-4.29c0-2.36-1.256-4.069-3.766-5.126c-1.775-0.738-4.05-1.104-6.824-1.104c-0.587,0-1.18,0.018-1.785,0.056
		c-0.396,0.795-0.596,1.671-0.596,2.634c0,1.587,0.613,2.871,1.842,3.853c1.15,0.904,2.539,1.357,4.164,1.357
		c0.15,0,0.367-0.041,0.65-0.126c0.284-0.085,0.49-0.127,0.623-0.127l0.057,0.027c-0.605,0.321-1.104,0.481-1.5,0.481
		c-1.738,0-3.184-0.519-4.334-1.558c-1.209-1.075-1.812-2.464-1.812-4.163c0-0.849,0.15-1.623,0.453-2.323
		c-4.74,0.246-8.845,1.653-12.318,4.222c-3.041,2.246-4.561,4.795-4.561,7.646c0,3.021,1.473,5.238,4.418,6.654
		c2.228,1.076,5.03,1.614,8.411,1.614c4.966,0,9.731-1.294,14.302-3.878c3.512-1.984,7.42-5.08,11.725-9.29
		C78.468,46.865,81.953,43.531,84.613,41.077z M91.576,42.547l-3.027-0.611c-7.741,7.476-13.64,14.051-17.699,19.732
		c-1.113,1.565-1.68,2.557-1.697,2.972l0.084,0.143c0.207,0.056,0.584-0.208,1.132-0.793c1.454-1.621,3.663-4.044,6.626-7.27
		c3.115-3.319,5.465-5.761,7.05-7.326C86.707,46.735,89.217,44.452,91.576,42.547z M93.818,35.071c0-0.169-0.094-0.253-0.283-0.253
		c-0.906,0-3.614,2.04-8.129,6.119c1.303,0.244,1.936,0.367,1.898,0.367c1.076-0.961,2.162-1.908,3.258-2.848
		C92.241,36.914,93.328,35.786,93.818,35.071z M112.227,34.479c-0.397-0.756-1.388-1.133-2.973-1.133
		c-2.096,0-5.031,1.114-8.807,3.343c-2.721,1.604-5.393,3.474-8.016,5.606c0.432,0.076,1.084,0.18,1.954,0.312
		c3.058-2.473,5.813-4.344,8.271-5.607C105.979,35.318,109.168,34.479,112.227,34.479z M116.107,37.99
		c0-1.096-0.445-1.916-1.333-2.465c-0.759-0.471-1.711-0.707-2.866-0.707c-2.59,0-5.408,0.906-8.451,2.719
		c-1.797,1.057-4.224,2.852-7.288,5.382c3.46,0.528,6.505,0.792,9.133,0.792c2.399,0,4.632-0.387,6.692-1.162
		C114.735,41.493,116.107,39.973,116.107,37.99z"/>
	<path fill="#21150C" d="M95.117,27.625c-0.861-0.012-2.025-4.941-2.148-5.476c-0.125,0.534-1.289,5.464-2.15,5.476
		c-2.195-1.973-4.173-0.383-4.173-0.383s3.456,0.296,3.538,4.736c0.035,0.54,0.078,1.08,0.01,1.688h1.346
		c-0.026-3.613-0.611-4.269-0.611-4.269l2.041,1.767l2.039-1.767c0,0-0.586,0.655-0.611,4.269h1.346
		c-0.068-0.607-0.025-1.147,0.01-1.688c0.082-4.44,3.539-4.736,3.539-4.736S97.312,25.652,95.117,27.625z"/>
</g>
</svg>
