<?xml version="1.0" encoding="utf-8"?>
<!-- Generator: Adobe Illustrator 16.0.0, SVG Export Plug-In . SVG Version: 6.00 Build 0)  -->
<!DOCTYPE svg PUBLIC "-//W3C//DTD SVG 1.1//EN" "http://www.w3.org/Graphics/SVG/1.1/DTD/svg11.dtd">
<svg version="1.1" id="Layer_1" xmlns="http://www.w3.org/2000/svg" xmlns:xlink="http://www.w3.org/1999/xlink" x="0px" y="0px"
	 width="265.645px" height="137.518px" viewBox="0 0 265.645 137.518" enable-background="new 0 0 265.645 137.518"
	 xml:space="preserve">
<g>
	<path fill="#02304D" d="M0,0c0.388,76.086,59.702,137.518,132.822,137.518c73.121,0,132.436-61.432,132.822-137.518H0z"/>
	<g>
		<radialGradient id="SVGID_1_" cx="82.3853" cy="42.0635" r="27.8033" gradientUnits="userSpaceOnUse">
			<stop  offset="0.0386" style="stop-color:#F6E9D5"/>
			<stop  offset="0.1124" style="stop-color:#F4E1C1"/>
			<stop  offset="0.2173" style="stop-color:#F1D8A9"/>
			<stop  offset="0.3079" style="stop-color:#F0D39B"/>
			<stop  offset="0.3732" style="stop-color:#EFD296"/>
			<stop  offset="1" style="stop-color:#8B6F2B"/>
		</radialGradient>
		<path fill="url(#SVGID_1_)" d="M111.729,21.729c-0.312,0.701-1.101,1.622-2.374,2.765c-0.984,0.803-1.971,1.621-2.956,2.45
			c-2.233,1.921-5.177,4.672-8.835,8.252c-2.361,2.257-4.725,4.528-7.082,6.812c-3.479,3.501-6.188,6.525-8.134,9.067
			c-2.599,3.424-3.892,6.11-3.892,8.057c0,1.011,0.361,1.862,1.09,2.548c0.724,0.686,1.605,1.083,2.646,1.187
			c0.312-1.245,0.739-2.58,1.284-4.008c0.051-0.156,0.155-0.415,0.311-0.778c0.259-0.571,0.701-1.374,1.323-2.413
			c0.857-1.219,1.468-2.062,1.831-2.53c0.75-0.935,1.479-1.687,2.178-2.256c3.035-2.491,5.695-3.738,7.979-3.738
			c1.763,0,2.646,0.805,2.646,2.414c0,2.49-1.312,4.994-3.931,7.51c-2.179,2.103-4.631,3.723-7.354,4.865
			c-1.948,0.803-3.904,1.206-5.879,1.206c0,0.233-0.043,0.584-0.135,1.051c-0.091,0.466-0.138,0.818-0.138,1.051
			c0,1.35,0.093,2.283,0.272,2.802c-0.102,0.13-0.18,0.194-0.231,0.194c-0.286,0-0.429-0.999-0.429-2.997
			c0-0.39,0.09-1.091,0.272-2.104c-1.584,0-2.841-0.394-3.776-1.186c-0.933-0.792-1.399-1.953-1.399-3.485
			c0-2.414,1.634-5.788,4.896-10.124c0.362-0.388,0.895-0.961,1.595-1.714c1.037-1.194,2.632-2.931,4.783-5.216
			c3.164-3.061,7.912-7.354,14.242-12.878c1.119-1.058,2.848-2.566,5.186-4.522c0.416-0.335,1.039-0.811,1.871-1.43
			c0.232-0.154,0.459-0.31,0.682-0.463c0.22-0.155,0.357-0.36,0.41-0.619c-0.107-0.079-0.25-0.116-0.431-0.116
			c-0.729,0-2.057,0.73-3.987,2.191c-0.932,0.706-2.301,1.777-4.111,3.211c-2.439,2.023-5.476,4.841-9.108,8.447
			c-4.587,4.593-7.547,7.501-8.868,8.719c-0.623,0.6-1.596,1.444-2.92,2.533c-2.048,1.504-3.969,2.257-5.758,2.257
			c-0.338,0-0.811-0.137-1.422-0.411c-0.607-0.271-0.965-0.538-1.069-0.798c-0.259-0.337-0.388-0.857-0.388-1.559
			c0-1.895,1.128-4.312,3.385-7.247c0.857-1.118,3.152-3.728,6.89-7.832c2.827-3.116,4.63-5.469,5.409-7.052
			c0.363-0.754,0.547-1.545,0.547-2.377c0-1.558-0.663-2.82-1.987-3.779c-1.194-0.883-2.607-1.325-4.243-1.325
			c-2.203,0-4.306,0.18-6.304,0.546c-3.786,0.702-7.147,1.986-10.079,3.858c-3.736,2.389-6.39,4.554-7.96,6.489
			c-1.569,1.936-2.665,3.539-3.288,4.813c-0.855,1.741-1.283,3.625-1.283,5.652c0,1.715,0.562,3.073,1.692,4.072
			c1.128,1,2.562,1.5,4.302,1.5c2.775,0,5.682-1.114,8.716-3.346c2.726-1.999,4.825-4.347,6.306-7.044
			c0.596-1.038,0.893-2.103,0.893-3.19c0-1.091-0.355-2.012-1.067-2.766c-0.716-0.75-1.618-1.127-2.708-1.127
			c-1.606,0-2.722,0.287-3.346,0.856c-0.258,0.077-0.441,0.168-0.545,0.271l-0.117-0.194l0.237-0.155
			c1.251-0.753,2.319-1.127,3.204-1.127c1.487,0,2.665,0.395,3.539,1.186c0.875,0.792,1.311,1.914,1.311,3.367
			c0,1.478-0.587,3.151-1.753,5.02c-1.587,2.518-3.68,4.568-6.276,6.149c-2.731,1.661-5.523,2.489-8.385,2.489
			c-1.246,0-2.402-0.27-3.469-0.815c-1.168-0.598-2.014-1.427-2.533-2.491c-0.439-0.934-0.664-1.869-0.664-2.802
			c0-0.909,0.234-2.147,0.701-3.718c0.467-1.57,0.948-2.769,1.439-3.6c1.635-2.749,3.58-5.061,5.838-6.927
			c2.674-2.178,5.955-4.033,9.847-5.565c3.139-1.244,6.786-1.868,10.938-1.868c3.525,0,6.096,0.936,7.705,2.807
			c0.699,0.803,1.051,1.65,1.051,2.533c0,2.129-0.844,4.376-2.533,6.74c-0.88,1.247-2.514,3.105-4.9,5.573
			c-2.906,2.962-5.256,5.689-7.043,8.182c-1.535,2.077-2.299,3.727-2.299,4.948c0,0.443,0.182,0.818,0.545,1.131
			c0.363,0.31,0.766,0.468,1.207,0.468c0.883,0,1.764-0.182,2.646-0.548c1.246-0.492,2.647-1.429,4.204-2.806
			c3.396-2.989,6.86-6.314,10.39-9.978c3.294-3.457,6.33-6.302,9.108-8.541c0.468-0.361,1.18-0.894,2.139-1.596
			c0.418-0.364,1.077-0.882,1.985-1.557c0.312-0.18,0.751-0.492,1.325-0.935c0.283-0.206,0.725-0.48,1.323-0.816h-0.038
			c0.44-0.259,0.814-0.375,1.127-0.349c0.129-0.158,0.286-0.234,0.466-0.234C111.198,20.913,111.704,21.185,111.729,21.729z
			 M99.355,49.556c0-1.427-0.807-2.141-2.413-2.141c-2.879,0-6.164,2.127-9.847,6.382c-0.725,0.857-1.611,2.321-2.646,4.397
			c-0.544,1.089-0.91,1.855-1.088,2.297c-0.418,0.985-0.625,1.778-0.625,2.373c0.754,0,1.596-0.168,2.531-0.505
			c0.621-0.131,1.543-0.403,2.76-0.817c1.3-0.596,2.26-1.062,2.883-1.401c1.036-0.596,1.906-1.193,2.607-1.791
			c0.57-0.647,1.36-1.412,2.373-2.294C98.201,53.097,99.355,50.932,99.355,49.556z"/>
		<radialGradient id="SVGID_2_" cx="104.1807" cy="66.1147" r="10.051" gradientUnits="userSpaceOnUse">
			<stop  offset="0.0386" style="stop-color:#F6E9D5"/>
			<stop  offset="0.1124" style="stop-color:#F4E1C1"/>
			<stop  offset="0.2173" style="stop-color:#F1D8A9"/>
			<stop  offset="0.3079" style="stop-color:#F0D39B"/>
			<stop  offset="0.3732" style="stop-color:#EFD296"/>
			<stop  offset="1" style="stop-color:#8B6F2B"/>
		</radialGradient>
		<path fill="url(#SVGID_2_)" d="M112.898,57.807c0,0.076-0.129,0.233-0.391,0.466c-1.996,1.894-3.579,3.528-4.745,4.903
			c-2.157,2.517-4.528,5.645-7.124,9.378c-0.855,1.246-1.388,2-1.595,2.258c-0.727,0.985-1.29,1.654-1.693,2.004
			c-0.402,0.352-0.784,0.525-1.147,0.525c-0.494,0-0.74-0.284-0.74-0.855c0-0.959,1.688-3.762,5.061-8.405l7.782-10.743l-0.115-0.04
			c-3.79,3.036-6.228,4.553-7.318,4.553c-0.676,0-1.014-0.309-1.014-0.932c0-1.167,1.132-2.801,3.388-4.904v-0.039
			c-0.415,0.286-1.038,0.751-1.866,1.401c-0.312,0.286-0.781,0.686-1.401,1.206c-0.156,0.104-0.287,0.155-0.391,0.155l-0.036-0.078
			c0-0.269,0.972-1.165,2.919-2.69c0.931-0.723,1.864-1.083,2.801-1.083c0.18,0,0.334,0.041,0.466,0.119v0.079
			c0,0.028-0.646,0.874-1.946,2.542c-1.297,1.667-1.944,2.686-1.944,3.054c0,0.16,0.079,0.239,0.232,0.239
			c0.544,0,1.854-0.809,3.93-2.429c1.325-1.045,2.635-2.1,3.933-3.172c0.361-0.285,0.74-0.431,1.127-0.431
			c0.519,0,0.777,0.064,0.777,0.194c-9.832,13.335-14.748,20.327-14.748,20.978c0,0.024,0.013,0.058,0.038,0.097
			c0.028,0.038,0.054,0.057,0.077,0.057c0.209,0,0.533-0.297,0.975-0.895c2.179-3.035,4.371-6.07,6.578-9.107
			c2.619-3.45,5.148-6.2,7.588-8.251c0.208-0.18,0.35-0.271,0.428-0.271S112.898,57.728,112.898,57.807z"/>
		<radialGradient id="SVGID_3_" cx="117.7041" cy="58.3506" r="4.9275" gradientUnits="userSpaceOnUse">
			<stop  offset="0.0386" style="stop-color:#F6E9D5"/>
			<stop  offset="0.1124" style="stop-color:#F4E1C1"/>
			<stop  offset="0.2173" style="stop-color:#F1D8A9"/>
			<stop  offset="0.3079" style="stop-color:#F0D39B"/>
			<stop  offset="0.3732" style="stop-color:#EFD296"/>
			<stop  offset="1" style="stop-color:#8B6F2B"/>
		</radialGradient>
		<path fill="url(#SVGID_3_)" d="M123.795,57.807c-0.078,0.362-0.922,1.167-2.531,2.412c-1.298,1.012-2.385,1.517-3.269,1.517
			c-0.727,0-1.089-0.324-1.089-0.974c0-0.465,0.452-1.309,1.363-2.527c-1.301,1.167-2.168,1.906-2.609,2.217
			c-1.167,0.857-2.141,1.284-2.92,1.284c-0.75,0-1.127-0.297-1.127-0.895c0-0.156,0.078-0.467,0.078-0.467
			c0.208-0.675,0.676-1.011,1.402-1.011c0.439,0,0.662,0.133,0.662,0.399c0,0.078-0.03,0.213-0.08,0.397
			c-0.052,0.188-0.079,0.334-0.079,0.441c0,0.024,0.027,0.119,0.079,0.279c0.08,0.025,0.156,0.039,0.233,0.039
			c0.493,0,1.726-0.835,3.696-2.507c1.222-1.07,2.453-2.14,3.699-3.21c0.206-0.159,0.621-0.237,1.243-0.237
			c0.209,0,0.313,0.051,0.313,0.156c0,0.053-0.661,0.869-1.984,2.453c-1.326,1.582-1.986,2.581-1.986,2.996
			c0.079,0.232,0.17,0.35,0.271,0.35c0.443,0,1.232-0.5,2.377-1.5C122.677,58.423,123.431,57.883,123.795,57.807z"/>
		<g>
			<radialGradient id="SVGID_4_" cx="137.3359" cy="57.6504" r="10.7806" gradientUnits="userSpaceOnUse">
				<stop  offset="0.0386" style="stop-color:#F6E9D5"/>
				<stop  offset="0.1124" style="stop-color:#F4E1C1"/>
				<stop  offset="0.2173" style="stop-color:#F1D8A9"/>
				<stop  offset="0.3079" style="stop-color:#F0D39B"/>
				<stop  offset="0.3732" style="stop-color:#EFD296"/>
				<stop  offset="1" style="stop-color:#8B6F2B"/>
			</radialGradient>
			<path fill="url(#SVGID_4_)" d="M150.142,55.912c0,0.105-0.047,0.258-0.137,0.458c-0.092,0.197-0.138,0.324-0.138,0.376
				c0,0.266,0.3,0.399,0.895,0.399c0.806,0,1.207-0.389,1.207-1.168c0-0.727-0.53-1.089-1.595-1.089
				c-1.118,0-2.491,0.614-4.124,1.844c-0.623,0.471-1.794,1.478-3.506,3.021l-0.074-0.039c1.401-1.895,2.438-3.322,3.11-4.281
				v-0.078c0-0.312-0.246-0.467-0.737-0.467c-0.311,0-1.098,0.519-2.356,1.555c-0.845,0.697-2.56,2.254-3.285,2.841
				c-1.352,1.09-2.261,1.622-2.728,1.596h-0.192c-0.079-0.078-0.115-0.156-0.115-0.233c0-0.466,0.545-1.304,1.633-2.511
				c1.089-1.206,1.634-1.925,1.634-2.159c0-0.441-0.44-0.693-1.321-0.76c-0.884-0.064-1.326-0.188-1.326-0.37
				c0-0.18,0.132-0.388,0.391-0.622c0.18-0.157,0.374-0.312,0.582-0.468c-0.104-0.259-0.336-0.389-0.698-0.389
				c-0.415,0-0.811,0.13-1.189,0.389c-0.373,0.26-0.562,0.584-0.562,0.975c0,0.259,0.089,0.441,0.272,0.543
				c-1.272,1.272-3.42,3.133-3.969,3.581c-0.751,0.622-1.429,0.934-2.023,0.934c-0.08,0-0.156-0.012-0.233-0.04
				c1.479-1.397,2.218-2.558,2.218-3.479c0-0.264-0.085-0.56-0.251-0.89c-0.171-0.331-0.369-0.495-0.606-0.495
				c-0.154,0-0.233,0.052-0.233,0.157c0,0.055,0.021,0.125,0.059,0.219c0.039,0.091,0.059,0.161,0.059,0.215
				c0,0.472-0.038,0.8-0.117,0.985c-0.96,0.419-1.609,1.312-1.946,2.676c-1.401,1.603-2.607,2.403-3.617,2.403
				c-0.365,0-0.544-0.181-0.544-0.546c0-0.805,0.66-1.88,1.982-3.228c1.194-1.22,2.222-2.038,3.075-2.453
				c0.26-0.129,1.059-0.325,1.086-0.351c0,0,0.12-0.073-0.236-0.151c-0.872-0.187-2.99,0.502-4.47,1.281
				c-1.375,0.753-2.465,1.556-3.27,2.412l-0.038,0.158v0.075c0,0.028,0.016,0.04,0.038,0.04c0.157,0,0.571-0.337,1.244-1.011v0.039
				c-0.725,0.83-1.087,1.726-1.087,2.685s0.634,1.439,1.905,1.439c1.142,0,2.621-0.636,4.438-1.908
				c0.131,0.078,0.363,0.118,0.701,0.118c0.389,0,1.209-0.274,2.064-0.935c0.756-0.581,1.904-1.65,2.225-1.945
				c1.067-0.986,1.682-1.596,1.838-1.829c0.309,0.078,0.487,0.116,0.54,0.116c0.102,0,0.255,0,0.464,0c0.206,0,0.359,0,0.464,0
				c0.669,0,1.006,0.091,1.006,0.271c0,0.025-0.733,0.69-2.198,1.992c-1.468,1.302-2.2,2.34-2.2,3.114
				c0,0.619,0.403,0.926,1.207,0.926c0.908,0,2.061-0.521,3.463-1.57c1.351-1.007,3.218-2.777,3.735-3.293v0.041
				c-1.84,2.339-2.764,3.854-2.764,4.545c0,0.081,0,0.134,0,0.16c0.105,0.081,0.312,0.118,0.626,0.118
				c0.543,0,1.962-1.082,4.261-3.247c2.296-2.166,3.92-3.25,4.882-3.25C149.945,55.354,150.142,55.541,150.142,55.912z"/>
			<radialGradient id="SVGID_5_" cx="155.8418" cy="58.3696" r="7.6317" gradientUnits="userSpaceOnUse">
				<stop  offset="0.0386" style="stop-color:#F6E9D5"/>
				<stop  offset="0.1124" style="stop-color:#F4E1C1"/>
				<stop  offset="0.2173" style="stop-color:#F1D8A9"/>
				<stop  offset="0.3079" style="stop-color:#F0D39B"/>
				<stop  offset="0.3732" style="stop-color:#EFD296"/>
				<stop  offset="1" style="stop-color:#8B6F2B"/>
			</radialGradient>
			<path fill="url(#SVGID_5_)" d="M165.551,57.965c-1.971,1.995-3.398,2.993-4.279,2.993c-0.104,0-0.182-0.032-0.235-0.098
				c-0.053-0.066-0.077-0.151-0.077-0.257c0-0.393,0.654-1.378,1.963-2.955c1.312-1.577,1.969-2.432,1.969-2.563
				c0-0.13-0.275-0.197-0.816-0.197c-0.415,0-0.795,0.146-1.133,0.433c-4.539,3.759-7.121,5.637-7.741,5.637
				c-0.13,0-0.221-0.04-0.272-0.119c-0.054-0.081-0.09-0.133-0.116-0.161c0-0.371,0.581-1.317,1.749-2.834
				c1.402-1.839,2.115-2.783,2.144-2.837c-0.054-0.078-0.209-0.119-0.469-0.119c-0.78,0-1.843,0.469-3.19,1.403
				c-1.045,0.717-3.009,2.614-3.523,3.053c-1.233,1.051-2.133,1.576-2.707,1.576c-0.308,0-0.548-0.435-0.719-1.305
				c-0.168-0.867-0.604-1.303-1.303-1.303c-0.519,0-0.908,0.116-1.166,0.353c0.416-0.158,0.623,0.244,0.623,1.205
				c0,0.649,0.048,1.102,0.154,1.362c0.207,0.415,0.597,0.621,1.167,0.621c0.881,0,1.997-0.508,3.347-1.53
				c0.338-0.262,0.828-0.68,1.48-1.257c0.178-0.163,0.519-0.46,0.546-0.48c0.621-0.52,1.089-0.92,1.4-1.206
				c0.828-0.65,1.452-1.115,1.866-1.401v0.039c-2.335,2.249-3.504,3.879-3.504,4.897c0,0.629,0.428,0.939,1.285,0.939
				c1.143,0,3.451-1.451,6.93-4.356l0.075,0.079c-1.426,1.438-2.141,2.553-2.141,3.337c0,0.629,0.402,0.941,1.206,0.941
				c0.859,0,1.975-0.521,3.347-1.57c1.768-1.361,2.648-2.2,2.648-2.513v-0.041L165.551,57.965z"/>
		</g>
		<radialGradient id="SVGID_6_" cx="157.1348" cy="83.2949" r="42.5833" gradientUnits="userSpaceOnUse">
			<stop  offset="0.0386" style="stop-color:#F6E9D5"/>
			<stop  offset="0.1124" style="stop-color:#F4E1C1"/>
			<stop  offset="0.2173" style="stop-color:#F1D8A9"/>
			<stop  offset="0.3079" style="stop-color:#F0D39B"/>
			<stop  offset="0.3732" style="stop-color:#EFD296"/>
			<stop  offset="1" style="stop-color:#8B6F2B"/>
		</radialGradient>
		<path fill="url(#SVGID_6_)" d="M213.099,68.097c0,2.958-2.062,5.254-6.188,6.889c-3.14,1.246-6.46,1.867-9.961,1.867
			c-2.933,0-7.021-0.455-12.261-1.36c-4.046,3.213-7.848,6.8-11.402,10.764c-5.009,5.571-7.508,9.911-7.508,13.019
			c0,1.012,0.295,1.854,0.892,2.527c0.598,0.674,1.403,1.01,2.411,1.01c1.456,0,2.765-0.363,3.934-1.086
			c1.582-0.982,2.957-2.185,4.127-3.607c1.399-1.732,2.098-3.375,2.098-4.926c0-1.449-0.739-2.174-2.217-2.174
			c-1.455,0-2.996,0.844-4.631,2.531c-1.479,1.531-2.219,3.072-2.219,4.631c0,0.34-0.076,0.506-0.232,0.506
			c-0.08,0-0.119-0.246-0.119-0.739c0-1.661,0.753-3.294,2.259-4.903c1.505-1.61,3.072-2.412,4.706-2.412
			c2.079,0,3.116,1.01,3.116,3.033c0,2.516-1.195,4.775-3.58,6.771c-2.283,1.895-4.708,2.843-7.277,2.843
			c-1.426,0-2.557-0.391-3.386-1.169c-0.832-0.777-1.246-1.867-1.246-3.268c0-5.707,5.955-13.661,17.861-23.857
			c-1.191-0.258-2.101-0.441-2.723-0.544c-4.593,3.787-9.678,8.587-15.257,14.399c-4.748,5.137-9.508,10.26-14.28,15.371
			c-0.727,0.779-1.323,1.168-1.791,1.168c-0.625,0-0.933-0.349-0.933-1.051c0-1.064,1.036-3.154,3.11-6.267
			c4.906-7.366,12.299-15.722,22.187-25.062c-1.146-0.182-2.014-0.337-2.611-0.469c-3.319,3.01-6.486,5.995-9.493,8.951
			c-5.423,5.346-9.366,9.068-11.834,11.171c-4.694,4.048-9.158,7.095-13.387,9.145c-5.189,2.491-10.416,3.737-15.684,3.737
			c-4.98,0-9.08-0.855-12.295-2.568c-4.076-2.204-6.113-5.593-6.113-10.156c0-4.387,2.089-8.225,6.266-11.522
			c4.88-3.839,10.846-5.94,17.904-6.304c1.531-2.412,4.162-4.189,7.9-5.331c2.902-0.882,6.147-1.324,9.729-1.324
			c5.705,0,14.619,1.22,26.735,3.656c6.462-5.784,10.379-8.678,11.754-8.678c0.804,0,1.205,0.325,1.205,0.973
			c0,0.727-1.075,2.232-3.229,4.515c-1.453,1.426-2.892,2.852-4.321,4.282l4.243,0.817c3.764-3.036,7.588-5.709,11.479-8.017
			c5.425-3.219,9.614-4.827,12.571-4.827c2.259,0,3.687,0.752,4.281,2.257c1.53,0.104,2.775,0.544,3.739,1.324
			C212.542,65.49,213.099,66.646,213.099,68.097z M169.315,72.339c-10.143-1.945-18.639-2.917-25.489-2.917
			c-8.771,0-14.67,1.842-17.707,5.525h0.429c3.994-0.026,7.472,0.637,10.428,1.984c3.868,1.766,5.8,4.412,5.8,7.94
			c0,3.527-2.089,6.562-6.264,9.106c-3.971,2.412-8.355,3.619-13.157,3.619c-2.491,0-4.785-0.493-6.889-1.479
			c-2.669-1.245-4.009-2.958-4.009-5.137c0-0.259,0.045-0.616,0.137-1.07c0.092-0.452,0.216-0.642,0.371-0.564l0.038,0.117
			c-0.13,0.882-0.193,1.271-0.193,1.169c0,2.18,1.218,3.787,3.656,4.824c1.79,0.752,3.944,1.129,6.461,1.129
			c2.931,0,5.852-0.48,8.757-1.439c3.164-1.039,5.741-2.486,7.727-4.34c1.985-1.854,2.977-3.82,2.977-5.895
			c0-3.244-1.728-5.594-5.178-7.045c-2.438-1.014-5.564-1.518-9.376-1.518c-0.807,0-1.622,0.025-2.453,0.076
			c-0.545,1.092-0.818,2.297-0.818,3.62c0,2.179,0.843,3.944,2.53,5.293c1.582,1.243,3.49,1.866,5.723,1.866
			c0.207,0,0.504-0.057,0.894-0.174c0.392-0.117,0.674-0.174,0.856-0.174l0.079,0.037c-0.833,0.441-1.519,0.661-2.063,0.661
			c-2.389,0-4.373-0.712-5.955-2.14c-1.661-1.479-2.491-3.387-2.491-5.721c0-1.167,0.208-2.231,0.622-3.192
			c-6.512,0.338-12.152,2.271-16.928,5.802c-4.178,3.086-6.267,6.59-6.267,10.508c0,4.15,2.023,7.197,6.072,9.145
			c3.062,1.478,6.913,2.217,11.558,2.217c6.824,0,13.373-1.776,19.654-5.33c4.824-2.726,10.196-6.98,16.112-12.766
			C160.871,80.293,165.66,75.713,169.315,72.339z M178.885,74.359l-4.161-0.84c-10.638,10.271-18.743,19.31-24.321,27.116
			c-1.529,2.15-2.308,3.513-2.333,4.083l0.116,0.195c0.284,0.078,0.803-0.285,1.556-1.089c1.998-2.228,5.033-5.558,9.104-9.989
			c4.281-4.562,7.509-7.917,9.688-10.068C172.193,80.115,175.644,76.977,178.885,74.359z M181.966,64.087
			c0-0.232-0.128-0.348-0.39-0.348c-1.246,0-4.967,2.804-11.171,8.409c1.792,0.334,2.66,0.503,2.61,0.503
			c1.477-1.317,2.971-2.622,4.474-3.913C179.799,66.62,181.29,65.07,181.966,64.087z M207.261,63.273
			c-0.544-1.04-1.905-1.558-4.083-1.558c-2.88,0-6.916,1.531-12.104,4.593c-3.738,2.203-7.407,4.773-11.015,7.705
			c0.596,0.104,1.49,0.247,2.687,0.429c4.201-3.397,7.99-5.969,11.365-7.705C198.677,64.427,203.059,63.273,207.261,63.273z
			 M212.594,68.097c0-1.504-0.61-2.631-1.832-3.386c-1.041-0.648-2.349-0.972-3.938-0.972c-3.559,0-7.432,1.245-11.613,3.736
			c-2.468,1.454-5.804,3.918-10.016,7.396c4.754,0.727,8.941,1.088,12.551,1.088c3.297,0,6.364-0.531,9.196-1.596
			C210.71,72.912,212.594,70.821,212.594,68.097z"/>
		<linearGradient id="SVGID_7_" gradientUnits="userSpaceOnUse" x1="172.1084" y1="54.2422" x2="189.4854" y2="54.2422">
			<stop  offset="0.0386" style="stop-color:#F6E9D5"/>
			<stop  offset="0.1124" style="stop-color:#F4E1C1"/>
			<stop  offset="0.2173" style="stop-color:#F1D8A9"/>
			<stop  offset="0.3079" style="stop-color:#F0D39B"/>
			<stop  offset="0.3732" style="stop-color:#EFD296"/>
			<stop  offset="1" style="stop-color:#8B6F2B"/>
		</linearGradient>
		<path fill="url(#SVGID_7_)" d="M183.751,53.854c-1.186-0.017-2.783-6.79-2.954-7.524c-0.169,0.734-1.772,7.507-2.954,7.524
			c-3.019-2.71-5.734-0.525-5.734-0.525s4.751,0.405,4.862,6.507c0.05,0.742,0.106,1.485,0.015,2.318h1.847
			c-0.034-4.965-0.837-5.865-0.837-5.865l2.802,2.427l2.804-2.427c0,0-0.806,0.9-0.841,5.865h1.85
			c-0.095-0.833-0.035-1.577,0.012-2.318c0.115-6.102,4.864-6.507,4.864-6.507S186.769,51.144,183.751,53.854z"/>
	</g>
</g>
</svg>
