<?xml version="1.0" encoding="utf-8"?>
<!-- Generator: Adobe Illustrator 16.0.0, SVG Export Plug-In . SVG Version: 6.00 Build 0)  -->
<!DOCTYPE svg PUBLIC "-//W3C//DTD SVG 1.1//EN" "http://www.w3.org/Graphics/SVG/1.1/DTD/svg11.dtd">
<svg version="1.1" id="Layer_1" xmlns="http://www.w3.org/2000/svg" xmlns:xlink="http://www.w3.org/1999/xlink" x="0px" y="0px"
	 width="59.334px" height="44px" viewBox="0 0 59.334 44" enable-background="new 0 0 59.334 44" xml:space="preserve">
<g>
	<g>
		<g>
			<g>
				<circle fill="#FAA833" cx="22" cy="22" r="22"/>
			</g>
			<g>
				<polygon fill="#FAA833" points="30.334,11.666 59.334,7 37.334,25.333 				"/>
			</g>
		</g>
	</g>
	<path fill="#FFFFFF" d="M26.106,21.46C24.461,21.436,22.235,12.02,22,11c-0.237,1.02-2.461,10.436-4.109,10.46
		c-4.195-3.769-7.97-0.731-7.97-0.731s6.604,0.566,6.761,9.047c0.064,1.033,0.148,2.066,0.02,3.225h2.568
		c-0.051-6.902-1.168-8.151-1.168-8.151L22,28.219l3.898-3.37c0,0-1.119,1.249-1.172,8.151h2.57
		c-0.129-1.158-0.045-2.191,0.02-3.225c0.156-8.48,6.763-9.047,6.763-9.047S30.302,17.691,26.106,21.46z"/>
</g>
</svg>
