<?xml version="1.0" encoding="utf-8"?>
<!-- Generator: Adobe Illustrator 16.0.0, SVG Export Plug-In . SVG Version: 6.00 Build 0)  -->
<!DOCTYPE svg PUBLIC "-//W3C//DTD SVG 1.1//EN" "http://www.w3.org/Graphics/SVG/1.1/DTD/svg11.dtd">
<svg version="1.1" id="Layer_1" xmlns="http://www.w3.org/2000/svg" xmlns:xlink="http://www.w3.org/1999/xlink" x="0px" y="0px"
	 width="106.5px" height="178px" viewBox="0 0 106.5 178" enable-background="new 0 0 106.5 178" xml:space="preserve">
<g>
	<path fill="#FFFFFF" d="M21.394,12.796c0,6.107,0,12.182,0,18.289c0,1.354-2.141,1.354-2.141,0c0-3.777,0-7.523,0-11.27
		c-0.409,1.354-0.818,2.676-1.259,4.029c-0.314,1.039-1.731,1.007-2.046,0c-0.504-1.479-0.976-2.959-1.479-4.438
		c0,3.935,0,7.87,0,11.773c0,1.354-2.141,1.354-2.141,0c0-6.106,0-12.245,0-18.383c0-1.259,1.731-1.417,2.109-0.283
		c0.819,2.518,1.668,5.036,2.519,7.555c0.787-2.519,1.574-5.037,2.361-7.555C19.662,11.379,21.394,11.568,21.394,12.796z"/>
	<path fill="#FFFFFF" d="M27.94,32.124h-3.62c-0.567,0-1.039-0.504-1.039-1.07V13.11c0-0.566,0.472-1.039,1.039-1.039h3.62
		c1.354,0,1.354,2.109,0,2.109h-2.581v8.09h2.172c1.354,0,1.354,2.109,0,2.109h-2.172v5.635h2.581
		C29.294,30.015,29.294,32.124,27.94,32.124z"/>
	<path fill="#FFFFFF" d="M37.541,13.268c0,5.949,0,11.899,0,17.817c0,1.354-2.141,1.354-2.141,0c0-2.613,0-5.226,0-7.838
		c-0.818,0.032-1.637,0-2.424-0.094c0,2.644,0,5.289,0,7.933c0,1.354-2.141,1.354-2.141,0c0-5.918,0-11.868,0-17.817
		c0-1.385,2.141-1.385,2.141,0c0,2.581,0,5.131,0,7.712c0.787,0.125,1.7,0.157,2.424,0.125c0-2.612,0-5.225,0-7.838
		C35.4,11.883,37.541,11.883,37.541,13.268z"/>
	<path fill="#FFFFFF" d="M50.289,22.963c-0.094,1.479-0.22,3.022-0.598,4.438c-0.347,1.165-0.566,2.456-1.228,3.494
		c-0.818,1.259-2.109,1.637-3.463,0.976c-0.283-0.158-0.409-0.346-0.504-0.567c-0.472-0.692-0.692-1.574-0.881-2.392
		c-0.252-1.228-0.409-2.456-0.535-3.683c-0.063-0.598-0.126-1.228-0.157-1.857c-0.473,0.063-0.913,0.032-1.386,0
		c0,2.55,0,5.1,0,7.649c0,1.354-2.109,1.354-2.109,0c0-5.824,0-11.647,0-17.471c0-1.385,2.109-1.385,2.109,0c0,2.55,0,5.1,0,7.681
		c0.189,0,0.41,0.032,0.63,0.032c0.189,0,0.409,0.031,0.598,0c0-0.755,0-1.511,0.031-2.235c0.063-1.448,0.251-2.959,0.724-4.344
		c0.378-1.039,0.976-2.456,2.172-2.707c1.385-0.315,2.487,0.755,3.148,1.857c0.724,1.259,1.07,2.708,1.29,4.155
		C50.353,19.626,50.384,21.295,50.289,22.963z M47.865,17.266c-0.22-1.007-0.629-2.644-1.605-3.211
		c-0.031,0-0.031-0.031-0.062-0.031c-0.031,0.031-0.063,0.063-0.095,0.094c-0.283,0.441-0.472,0.913-0.629,1.417
		c-0.725,2.487-0.599,5.037-0.441,7.586c0.095,1.417,0.189,2.865,0.441,4.281c0.157,0.913,0.314,1.92,0.755,2.676
		c0.095,0.032,0.157,0.032,0.063,0.063c0.126-0.031,0.094,0,0.188-0.126c0.221-0.22,0.409-0.629,0.535-0.976
		c0.283-0.85,0.535-1.763,0.724-2.645C48.307,23.467,48.526,20.193,47.865,17.266z"/>
</g>
<g>
	<path fill="#FFFFFF" d="M18.812,64.85c-0.157-1.637-0.346-3.306-0.503-4.974h-3.62c-0.252,1.668-0.473,3.337-0.63,4.974
		c-0.157,1.322-2.329,1.322-2.203,0c0.251-2.393,0.566-4.753,0.944-7.114c0.598-3.778,1.228-7.681,2.707-11.207
		c0.188-0.441,0.535-0.787,1.07-0.787h1.511c0.661,0,1.039,0.504,1.102,1.07l1.794,18.038C21.142,66.172,18.938,66.172,18.812,64.85
		z M18.088,57.767c-0.314-3.148-0.63-6.296-0.944-9.475c-1.07,3.053-1.637,6.327-2.141,9.475H18.088z"/>
	<path fill="#FFFFFF" d="M31.938,70.201c-1.195-0.314-2.015-1.448-2.486-2.55c-0.599-1.385-0.976-2.801-1.322-4.281
		c-0.409-1.92-0.756-5.949-3.18-6.295v7.964c0,1.354-2.203,1.354-2.203,0V47.064c0-1.417,2.203-1.417,2.203,0v5.918
		c1.165-1.889,1.826-4.029,2.361-6.202c0.314-1.385,2.455-0.787,2.109,0.567c-0.692,2.77-1.637,5.446-3.274,7.744
		c2.424,0.881,3.306,3.998,3.841,6.453c0.283,1.448,0.598,2.896,1.07,4.313c0.221,0.566,0.44,1.133,0.818,1.668
		c0.062,0.126,0.221,0.284,0.378,0.441c0,0,0.062,0.031,0.126,0.063c0.031,0.031,0.126,0.063,0.157,0.063
		C33.89,68.438,33.324,70.547,31.938,70.201z"/>
	<path fill="#FFFFFF" d="M37.416,68.911c-1.448,0.031-1.448-2.109,0-2.109c0.692-0.032,1.447,0,2.108-0.252
		c0.189-0.063,0.347-0.126,0.221-0.346c-0.189-0.284-0.725-0.284-1.039-0.284c-0.031,0-0.062,0-0.126,0c-1.385,0-2.77,0-4.155,0
		c-0.598,0-1.102-0.472-1.102-1.039c0-6.044,0-12.119,0-18.163c0-1.354,2.235-1.354,2.235,0c0,5.697,0,11.395,0,17.093
		c0.188,0,0.409,0,0.629,0h0.032c0.724,0,1.668-0.063,2.581,0c0-5.761,0-11.521,0-17.25c0-1.385,2.203-1.385,2.203,0
		c0,5.95,0,11.931,0,17.912c0.441,0.315,0.787,0.755,0.913,1.417C42.389,68.47,39.429,68.879,37.416,68.911z"/>
	<path fill="#FFFFFF" d="M51.171,46.718c0,6.044,0,12.056,0,18.1c0,1.322-2.109,1.322-2.109,0c0-3.588,0-7.146,0-10.734
		c-1.07,3.589-2.109,7.146-3.148,10.734c-0.346,1.102-2.077,0.913-2.077-0.283c0-5.95,0-11.868,0-17.817
		c0-1.354,2.109-1.354,2.109,0c0,3.494,0,6.957,0,10.451c1.038-3.588,2.108-7.146,3.147-10.734
		C49.409,45.301,51.171,45.522,51.171,46.718z"/>
	<path fill="#FFFFFF" d="M60.395,46.718c0,6.044,0,12.056,0,18.1c0,1.322-2.109,1.322-2.109,0c0-3.588,0-7.146,0-10.734
		c-1.07,3.589-2.109,7.146-3.147,10.734c-0.347,1.102-2.078,0.913-2.078-0.283c0-5.95,0-11.868,0-17.817
		c0-1.354,2.109-1.354,2.109,0c0,3.494,0,6.957,0,10.451c1.038-3.588,2.108-7.146,3.147-10.734
		C58.632,45.301,60.395,45.522,60.395,46.718z"/>
</g>
<g>
	<path fill="#FFFFFF" d="M21.519,103.935c-1.195-0.314-2.015-1.448-2.486-2.55c-0.598-1.385-0.976-2.801-1.322-4.281
		c-0.409-1.92-0.756-5.949-3.18-6.295v7.964c0,1.354-2.203,1.354-2.203,0V80.798c0-1.417,2.203-1.417,2.203,0v5.918
		c1.165-1.889,1.826-4.029,2.361-6.202c0.314-1.385,2.455-0.787,2.109,0.567c-0.692,2.77-1.637,5.446-3.274,7.744
		c2.424,0.881,3.306,3.998,3.841,6.453c0.283,1.448,0.598,2.896,1.07,4.313c0.221,0.566,0.44,1.133,0.818,1.668
		c0.062,0.126,0.221,0.284,0.378,0.441c0,0,0.062,0.031,0.126,0.063c0.031,0.031,0.126,0.063,0.157,0.063
		C23.471,102.172,22.905,104.281,21.519,103.935z"/>
	<path fill="#FFFFFF" d="M30.018,90.43c-0.126,1.417-0.252,2.928-0.661,4.312c-0.314,1.102-0.535,2.393-1.259,3.4
		c-0.851,1.228-2.141,1.542-3.526,0.881c-0.283-0.126-0.377-0.283-0.535-0.472c-0.535-0.724-0.724-1.731-0.912-2.581
		c-0.252-1.228-0.409-2.456-0.535-3.683c-0.189-2.046-0.409-4.218-0.252-6.296c0.095-1.417,0.283-2.896,0.818-4.218
		c0.409-1.007,1.039-2.267,2.267-2.487c1.416-0.252,2.55,0.913,3.179,2.015c0.787,1.322,1.103,2.77,1.291,4.25
		C30.113,87.156,30.144,88.793,30.018,90.43z M26.177,97.167c0.158-0.22,0.378-0.661,0.504-0.976
		c0.314-0.881,0.599-1.794,0.756-2.707c0.598-2.928,0.787-6.202,0.062-9.098c-0.22-0.944-0.661-2.518-1.637-3.022h-0.031
		c-0.063,0.063-0.126,0.126-0.157,0.157c-0.283,0.441-0.473,0.913-0.63,1.385c-0.724,2.456-0.598,4.974-0.44,7.46
		c0.094,1.417,0.188,2.833,0.44,4.25c0.188,0.913,0.347,1.92,0.818,2.708c0,0,0.031,0,0.063,0
		C26.083,97.324,26.146,97.198,26.177,97.167z"/>
	<path fill="#FFFFFF" d="M38.045,80.735c0,5.949,0,11.899,0,17.817c0,1.354-2.141,1.354-2.141,0c0-2.613,0-5.226,0-7.838
		c-0.818,0.032-1.637,0-2.424-0.094c0,2.644,0,5.289,0,7.933c0,1.354-2.141,1.354-2.141,0c0-5.918,0-11.868,0-17.817
		c0-1.385,2.141-1.385,2.141,0c0,2.581,0,5.131,0,7.712c0.787,0.125,1.7,0.157,2.424,0.125c0-2.612,0-5.225,0-7.838
		C35.905,79.35,38.045,79.35,38.045,80.735z"/>
	<path fill="#FFFFFF" d="M46.859,82.025c-0.661,0-1.354,0-2.015,0c0,5.54,0,11.112,0,16.652c0,1.354-2.141,1.354-2.141,0
		c0-5.541,0-11.112,0-16.652c-0.851,0-1.669,0-2.519,0c-1.354,0-1.354-2.141,0-2.141c2.235,0,4.47,0,6.674,0
		C48.244,79.885,48.244,82.025,46.859,82.025z"/>
	<path fill="#FFFFFF" d="M55.483,98.583c-0.157-1.637-0.346-3.306-0.503-4.974h-3.62c-0.252,1.668-0.473,3.337-0.63,4.974
		c-0.157,1.322-2.329,1.322-2.203,0c0.251-2.393,0.566-4.753,0.944-7.114c0.598-3.778,1.228-7.681,2.707-11.207
		c0.188-0.441,0.535-0.787,1.07-0.787h1.511c0.661,0,1.039,0.504,1.102,1.07l1.794,18.038
		C57.813,99.905,55.609,99.905,55.483,98.583z M54.759,91.5c-0.314-3.148-0.63-6.296-0.944-9.475
		c-1.07,3.053-1.637,6.327-2.141,9.475H54.759z"/>
	<path fill="#FFFFFF" d="M68.609,103.935c-1.195-0.314-2.015-1.448-2.486-2.55c-0.598-1.385-0.976-2.801-1.322-4.281
		c-0.409-1.92-0.756-5.949-3.18-6.295v7.964c0,1.354-2.203,1.354-2.203,0V80.798c0-1.417,2.203-1.417,2.203,0v5.918
		c1.165-1.889,1.826-4.029,2.361-6.202c0.314-1.385,2.455-0.787,2.109,0.567c-0.692,2.77-1.637,5.446-3.274,7.744
		c2.424,0.881,3.306,3.998,3.841,6.453c0.283,1.448,0.598,2.896,1.07,4.313c0.221,0.566,0.44,1.133,0.818,1.668
		c0.062,0.126,0.221,0.284,0.378,0.441c0,0,0.062,0.031,0.126,0.063c0.031,0.031,0.126,0.063,0.157,0.063
		C70.561,102.172,69.995,104.281,68.609,103.935z"/>
	<path fill="#FFFFFF" d="M76.919,82.025c-0.661,0-1.354,0-2.015,0c0,5.54,0,11.112,0,16.652c0,1.354-2.141,1.354-2.141,0
		c0-5.541,0-11.112,0-16.652c-0.851,0-1.669,0-2.519,0c-1.354,0-1.354-2.141,0-2.141c2.235,0,4.47,0,6.674,0
		C78.304,79.885,78.304,82.025,76.919,82.025z"/>
	<path fill="#FFFFFF" d="M85.198,92.949c0.031,0.944,0.031,1.889-0.095,2.833c-0.095,0.755-0.188,1.668-0.661,2.33
		c-1.07,1.511-2.864,1.637-4.596,1.385c-0.535-0.094-0.787-0.472-0.787-0.881c0-0.063,0-0.094,0-0.157c0-5.918,0-11.836,0-17.754
		c0-1.417,2.172-1.417,2.172,0c0,2.172,0,4.344,0,6.516c1.322,0.095,2.676,0.535,3.306,1.763
		C85.134,90.178,85.166,91.626,85.198,92.949z M83.026,92.571c-0.063-0.85-0.032-1.889-0.378-2.487
		c-0.126-0.22-0.252-0.409-0.599-0.535c-0.283-0.094-0.535-0.126-0.818-0.157c0,2.676,0,5.383,0,8.059
		c0.692,0,1.354-0.189,1.543-0.913C83.088,95.247,83.088,93.861,83.026,92.571z M88.975,80.703c0,5.918,0,11.836,0,17.754
		c0,0.346-0.126,0.598-0.314,0.755c-0.189,0.189-0.441,0.315-0.756,0.315c-0.347,0-0.599-0.126-0.787-0.315
		c-0.188-0.157-0.314-0.409-0.314-0.755c0-5.918,0-11.836,0-17.754C86.803,79.287,88.975,79.287,88.975,80.703z"/>
</g>
<g>
	<path fill="#FFFFFF" d="M19.442,124.164c-0.126,1.417-0.252,2.928-0.661,4.312c-0.314,1.102-0.535,2.393-1.259,3.4
		c-0.851,1.228-2.141,1.542-3.526,0.881c-0.283-0.126-0.377-0.283-0.535-0.472c-0.535-0.724-0.724-1.731-0.912-2.581
		c-0.252-1.228-0.409-2.456-0.535-3.683c-0.189-2.046-0.409-4.218-0.252-6.296c0.095-1.417,0.283-2.896,0.818-4.218
		c0.409-1.007,1.039-2.267,2.267-2.487c1.416-0.252,2.55,0.913,3.179,2.015c0.787,1.322,1.103,2.77,1.291,4.25
		C19.537,120.89,19.568,122.527,19.442,124.164z M15.601,130.9c0.158-0.22,0.378-0.661,0.504-0.976
		c0.315-0.881,0.599-1.794,0.756-2.707c0.598-2.928,0.787-6.202,0.062-9.098c-0.22-0.944-0.661-2.518-1.637-3.022h-0.031
		c-0.063,0.063-0.126,0.126-0.157,0.157c-0.283,0.441-0.473,0.913-0.63,1.385c-0.724,2.456-0.598,4.974-0.44,7.46
		c0.094,1.417,0.188,2.833,0.44,4.25c0.188,0.913,0.347,1.92,0.818,2.708c0,0,0.031,0,0.063,0
		C15.507,131.058,15.57,130.932,15.601,130.9z"/>
	<path fill="#FFFFFF" d="M27.689,115.759c-0.661,0-1.354,0-2.015,0c0,5.54,0,11.112,0,16.652c0,1.354-2.141,1.354-2.141,0
		c0-5.541,0-11.112,0-16.652c-0.851,0-1.669,0-2.519,0c-1.354,0-1.354-2.141,0-2.141c2.235,0,4.47,0,6.674,0
		C29.074,113.618,29.074,115.759,27.689,115.759z"/>
	<path fill="#FFFFFF" d="M36.974,127.217c-0.062,1.228-0.378,2.55-1.007,3.62c-1.039,1.7-2.771,2.519-4.785,2.519
		c-1.322-0.031-1.322-2.109,0-2.078c1.385,0.032,2.487-0.472,3.116-1.731c0.189-0.409,0.347-0.85,0.441-1.354
		c0.062-0.189,0.094-0.377,0.126-0.566c0-0.032,0-0.032,0-0.032c0-0.031,0-0.063,0-0.094c0.031-0.095,0.031-0.189,0.031-0.283
		c0.062-1.7-0.378-5.257-2.581-5.509c-1.103-0.126-1.512-1.731-0.284-2.046c1.196-0.283,2.456-1.952,2.109-3.211
		c-0.031-0.22-0.126-0.44-0.314-0.566c-0.126-0.095-0.221-0.157-0.347-0.189c0-0.031-0.062-0.031-0.094-0.063
		c-0.063,0-0.252-0.031-0.126-0.031c-0.158-0.032-0.315-0.032-0.473,0c-0.472,0.063-0.944,0.251-1.385,0.472
		c-1.196,0.535-2.235-1.259-1.039-1.794c1.102-0.535,2.487-1.07,3.715-0.598c0.976,0.378,1.857,1.133,2.077,2.204
		c0.347,1.637-0.346,3.494-1.605,4.69C36.408,122.023,37.069,124.919,36.974,127.217z"/>
	<path fill="#FFFFFF" d="M45.001,126.682c0.031,0.944,0.031,1.889-0.095,2.833c-0.095,0.755-0.188,1.668-0.661,2.33
		c-1.07,1.511-2.864,1.637-4.596,1.385c-0.535-0.094-0.787-0.472-0.787-0.881c0-0.063,0-0.094,0-0.157c0-5.918,0-11.836,0-17.754
		c0-1.417,2.172-1.417,2.172,0c0,2.172,0,4.344,0,6.516c1.322,0.095,2.676,0.535,3.306,1.763
		C44.938,123.912,44.969,125.36,45.001,126.682z M42.83,126.304c-0.063-0.85-0.032-1.889-0.378-2.487
		c-0.126-0.22-0.252-0.409-0.599-0.535c-0.283-0.094-0.535-0.126-0.818-0.157c0,2.676,0,5.383,0,8.059
		c0.692,0,1.354-0.189,1.543-0.913C42.892,128.98,42.892,127.595,42.83,126.304z M48.779,114.437c0,5.918,0,11.836,0,17.754
		c0,0.346-0.126,0.598-0.314,0.755c-0.189,0.189-0.441,0.315-0.756,0.315c-0.347,0-0.599-0.126-0.787-0.315
		c-0.188-0.157-0.314-0.409-0.314-0.755c0-5.918,0-11.836,0-17.754C46.607,113.02,48.779,113.02,48.779,114.437z"/>
	<path fill="#FFFFFF" d="M56.522,129.137c0,0.661,0.062,1.417-0.158,2.046c-0.755,1.952-2.896,2.329-4.753,2.046
		c-0.252-0.063-0.44-0.157-0.566-0.315c-0.221-0.188-0.378-0.44-0.378-0.818v-17.849c0-0.251,0.062-0.472,0.188-0.629
		c0.095-0.283,0.347-0.535,0.756-0.598c1.102-0.189,2.424-0.157,3.399,0.472c1.605,1.039,1.574,2.833,1.638,4.533
		c0.094,2.392,0.126,5.855-1.731,7.555c0.629,0.409,1.133,0.976,1.354,1.763C56.458,127.91,56.49,128.539,56.522,129.137z
		 M53.814,115.287c-0.314-0.126-0.629-0.189-0.976-0.189v9.286c0.882-0.22,1.26-1.228,1.479-2.203
		c0.252-1.322,0.221-2.676,0.157-3.998c0-0.598-0.062-1.196-0.062-1.763C54.381,115.853,54.192,115.507,53.814,115.287z
		 M54.224,128.036c-0.158-0.567-0.756-0.881-1.386-1.133v4.25c0.126,0,0.252,0,0.378,0c0.095-0.031,0.535-0.126,0.661-0.189
		c0.252-0.126,0.378-0.22,0.44-0.472C54.475,129.767,54.444,128.697,54.224,128.036z"/>
	<path fill="#FFFFFF" d="M64.706,126.682c0.031,0.944,0.031,1.889-0.095,2.833c-0.095,0.755-0.188,1.668-0.661,2.33
		c-1.07,1.511-2.864,1.637-4.596,1.385c-0.535-0.094-0.787-0.472-0.787-0.881c0-0.063,0-0.094,0-0.157c0-5.918,0-11.836,0-17.754
		c0-1.417,2.172-1.417,2.172,0c0,2.172,0,4.344,0,6.516c1.322,0.095,2.676,0.535,3.306,1.763
		C64.642,123.912,64.674,125.36,64.706,126.682z M62.534,126.304c-0.063-0.85-0.032-1.889-0.378-2.487
		c-0.126-0.22-0.252-0.409-0.599-0.535c-0.283-0.094-0.535-0.126-0.818-0.157c0,2.676,0,5.383,0,8.059
		c0.692,0,1.354-0.189,1.543-0.913C62.596,128.98,62.596,127.595,62.534,126.304z M68.483,114.437c0,5.918,0,11.836,0,17.754
		c0,0.346-0.126,0.598-0.314,0.755c-0.189,0.189-0.441,0.315-0.756,0.315c-0.347,0-0.599-0.126-0.787-0.315
		c-0.188-0.157-0.314-0.409-0.314-0.755c0-5.918,0-11.836,0-17.754C66.311,113.02,68.483,113.02,68.483,114.437z"/>
</g>
<g>
	<path fill="#FFFFFF" d="M21.519,171.401c-1.195-0.314-2.015-1.448-2.486-2.55c-0.599-1.385-0.976-2.801-1.322-4.281
		c-0.409-1.92-0.756-5.949-3.18-6.295v7.964c0,1.354-2.203,1.354-2.203,0v-17.974c0-1.417,2.203-1.417,2.203,0v5.918
		c1.165-1.889,1.826-4.029,2.361-6.202c0.314-1.385,2.455-0.787,2.109,0.567c-0.692,2.77-1.637,5.446-3.274,7.744
		c2.424,0.881,3.306,3.998,3.841,6.453c0.283,1.448,0.598,2.896,1.07,4.313c0.221,0.566,0.44,1.133,0.818,1.668
		c0.062,0.126,0.221,0.284,0.378,0.441c0,0,0.062,0.031,0.126,0.063c0.031,0.031,0.126,0.063,0.157,0.063
		C23.471,169.639,22.905,171.748,21.519,171.401z"/>
	<path fill="#FFFFFF" d="M30.018,157.897c-0.126,1.417-0.252,2.928-0.661,4.312c-0.314,1.102-0.535,2.393-1.259,3.4
		c-0.851,1.228-2.141,1.542-3.526,0.881c-0.283-0.126-0.377-0.283-0.535-0.472c-0.535-0.724-0.724-1.731-0.912-2.581
		c-0.252-1.228-0.409-2.456-0.535-3.683c-0.189-2.046-0.409-4.218-0.252-6.296c0.095-1.417,0.283-2.896,0.818-4.218
		c0.409-1.007,1.039-2.267,2.267-2.487c1.416-0.252,2.55,0.913,3.179,2.015c0.787,1.322,1.103,2.77,1.291,4.25
		C30.113,154.623,30.144,156.26,30.018,157.897z M26.177,164.633c0.158-0.22,0.378-0.661,0.504-0.976
		c0.315-0.881,0.599-1.794,0.756-2.707c0.598-2.928,0.787-6.202,0.062-9.098c-0.22-0.944-0.661-2.518-1.637-3.022h-0.031
		c-0.063,0.063-0.126,0.126-0.157,0.157c-0.283,0.441-0.473,0.913-0.63,1.385c-0.724,2.456-0.598,4.974-0.44,7.46
		c0.094,1.417,0.188,2.833,0.44,4.25c0.188,0.913,0.347,1.92,0.818,2.708c0,0,0.031,0,0.063,0
		C26.083,164.791,26.146,164.665,26.177,164.633z"/>
	<path fill="#FFFFFF" d="M36.975,157.047c-0.314,0.819-0.756,1.542-1.574,1.952c-0.598,0.314-1.259,0.346-1.92,0.283
		c0,2.235,0,4.438,0,6.673c0,1.354-2.141,1.354-2.141,0c0-5.981,0-11.931,0-17.912c0-0.472,0.252-0.787,0.598-0.944
		c0.126-0.063,0.284-0.126,0.473-0.126c1.542-0.094,3.306,0.158,4.218,1.574c0.661,1.007,0.693,2.361,0.756,3.525
		C37.448,153.647,37.573,155.536,36.975,157.047z M35.212,151.916c0-0.378-0.063-0.976-0.095-1.196
		c-0.062-0.409-0.126-0.755-0.283-1.007c-0.126-0.157-0.347-0.377-0.692-0.472c-0.221-0.063-0.44-0.094-0.661-0.094
		c0,2.644,0,5.32,0,7.996c0.031,0,0.031,0,0.031,0c0.378,0.063,0.851,0.094,1.102-0.189c0.347-0.378,0.441-0.944,0.535-1.448
		C35.307,154.34,35.307,153.112,35.212,151.916z"/>
	<path fill="#FFFFFF" d="M46.481,160.951c-0.062,1.228-0.378,2.55-1.007,3.62c-1.039,1.7-2.771,2.519-4.785,2.519
		c-1.322-0.031-1.322-2.109,0-2.078c1.385,0.032,2.487-0.472,3.116-1.731c0.189-0.409,0.347-0.85,0.441-1.354
		c0.062-0.189,0.094-0.377,0.126-0.566c0-0.032,0-0.032,0-0.032c0-0.031,0-0.063,0-0.094c0.031-0.095,0.031-0.189,0.031-0.283
		c0.062-1.7-0.378-5.257-2.581-5.509c-1.103-0.126-1.512-1.731-0.284-2.046c1.196-0.283,2.456-1.952,2.109-3.211
		c-0.031-0.22-0.126-0.44-0.314-0.566c-0.126-0.095-0.221-0.157-0.347-0.189c0-0.031-0.062-0.031-0.094-0.063
		c-0.063,0-0.252-0.031-0.126-0.031c-0.158-0.032-0.315-0.032-0.473,0c-0.472,0.063-0.944,0.251-1.385,0.472
		c-1.196,0.535-2.235-1.259-1.039-1.794c1.102-0.535,2.487-1.07,3.715-0.598c0.976,0.378,1.856,1.133,2.077,2.204
		c0.347,1.637-0.346,3.494-1.605,4.69C45.915,155.756,46.576,158.652,46.481,160.951z"/>
	<path fill="#FFFFFF" d="M55.704,147.918c0,6.044,0,12.056,0,18.1c0,1.322-2.109,1.322-2.109,0c0-3.588,0-7.146,0-10.734
		c-1.07,3.589-2.109,7.146-3.148,10.734c-0.346,1.102-2.077,0.913-2.077-0.283c0-5.95,0-11.868,0-17.817
		c0-1.354,2.109-1.354,2.109,0c0,3.494,0,6.957,0,10.451c1.038-3.588,2.108-7.146,3.147-10.734
		C53.941,146.501,55.704,146.722,55.704,147.918z"/>
	<path fill="#FFFFFF" d="M64.297,148.202c0,5.949,0,11.899,0,17.817c0,1.354-2.141,1.354-2.141,0c0-2.613,0-5.226,0-7.838
		c-0.818,0.032-1.637,0-2.424-0.094c0,2.644,0,5.289,0,7.933c0,1.354-2.141,1.354-2.141,0c0-5.918,0-11.868,0-17.817
		c0-1.385,2.141-1.385,2.141,0c0,2.581,0,5.131,0,7.712c0.787,0.125,1.7,0.157,2.424,0.125c0-2.612,0-5.225,0-7.838
		C62.157,146.816,64.297,146.816,64.297,148.202z"/>
	<path fill="#FFFFFF" d="M72.669,166.05c-0.157-1.637-0.346-3.306-0.503-4.974h-3.62c-0.252,1.668-0.473,3.337-0.63,4.974
		c-0.157,1.322-2.329,1.322-2.203,0c0.251-2.393,0.566-4.753,0.944-7.114c0.598-3.778,1.228-7.681,2.707-11.207
		c0.188-0.441,0.535-0.787,1.07-0.787h1.511c0.661,0,1.039,0.504,1.102,1.07l1.794,18.038C75,167.372,72.795,167.372,72.669,166.05z
		 M71.946,158.967c-0.314-3.148-0.63-6.296-0.944-9.475c-1.07,3.053-1.637,6.327-2.141,9.475H71.946z"/>
</g>
<rect x="63.566" y="17.596" transform="matrix(0.7071 -0.7071 0.7071 0.7071 4.1707 54.9376)" fill="#FFFFFF" width="9.677" height="9.677"/>
</svg>
